<svg xmlns="http://www.w3.org/2000/svg" direction="ltr" width="1004.36" height="593.53" viewBox="835.65 166.10 1004.36 593.53" stroke-linecap="round" stroke-linejoin="round" style="background-color: transparent;"><defs><clipPath id="vP0uAM3W_-9NtkN1OdUuV"><path d="M835.6583711102098,166.10963152528757L1840.023315300448,166.10963152528757L1840.023315300448,759.6401617946804L835.6583711102098,759.6401617946804Z"/></clipPath><clipPath id="XJVcfSGhvlsiduu7OPVOJ"><path d="M835.6583711102098,166.10963152528757L1840.023315300448,166.10963152528757L1840.023315300448,759.6401617946804L835.6583711102098,759.6401617946804Z"/></clipPath><clipPath id="gaK0enRFzP6ZnlBsRT034"><path d="M835.6583711102098,166.10963152528757L1840.023315300448,166.10963152528757L1840.023315300448,759.6401617946804L835.6583711102098,759.6401617946804Z"/></clipPath><clipPath id="Fq0Zo9JZaVBF515nAsaEF"><path d="M835.6583711102098,166.10963152528757L1840.023315300448,166.10963152528757L1840.023315300448,759.6401617946804L835.6583711102098,759.6401617946804Z"/></clipPath><clipPath id="ZVn5I83_MiySzWQFrXlzG"><path d="M835.6583711102098,166.10963152528757L1840.023315300448,166.10963152528757L1840.023315300448,759.6401617946804L835.6583711102098,759.6401617946804Z"/></clipPath><clipPath id="ULiFAVFdsRRq3YJDIsC3n"><path d="M835.6583711102098,166.10963152528757L1840.023315300448,166.10963152528757L1840.023315300448,759.6401617946804L835.6583711102098,759.6401617946804Z"/></clipPath><clipPath id="OLGLV8eqUUaMyGWGFfNOk"><path d="M835.6583711102098,166.10963152528757L1840.023315300448,166.10963152528757L1840.023315300448,759.6401617946804L835.6583711102098,759.6401617946804Z"/></clipPath><clipPath id="INQ0sAA0q_IfZ_2O3AhyQ"><path d="M835.6583711102098,166.10963152528757L1840.023315300448,166.10963152528757L1840.023315300448,759.6401617946804L835.6583711102098,759.6401617946804Z"/></clipPath><clipPath id="SXOVhyO7PnnWtWIKmezjD"><path d="M835.6583711102098,166.10963152528757L1840.023315300448,166.10963152528757L1840.023315300448,759.6401617946804L835.6583711102098,759.6401617946804Z"/></clipPath><clipPath id="HKaLrGSQqs98VCiYKrnx1"><path d="M835.6583711102098,166.10963152528757L1840.023315300448,166.10963152528757L1840.023315300448,759.6401617946804L835.6583711102098,759.6401617946804Z"/></clipPath><clipPath id="s-QK4WzeuRv_LIDQyJ52v"><path d="M835.6583711102098,166.10963152528757L1840.023315300448,166.10963152528757L1840.023315300448,759.6401617946804L835.6583711102098,759.6401617946804Z"/></clipPath><clipPath id="KSkI5YCn-bYILqDc980hq"><path d="M835.6583711102098,166.10963152528757L1840.023315300448,166.10963152528757L1840.023315300448,759.6401617946804L835.6583711102098,759.6401617946804Z"/></clipPath><clipPath id="JrXKkk_8eKr9oqehD3mcK"><path d="M835.6583711102098,166.10963152528757L1840.023315300448,166.10963152528757L1840.023315300448,759.6401617946804L835.6583711102098,759.6401617946804Z"/></clipPath><clipPath id="U5LaFmn-bhMxf4vF_8DT_"><path d="M835.6583711102098,166.10963152528757L1840.023315300448,166.10963152528757L1840.023315300448,759.6401617946804L835.6583711102098,759.6401617946804Z"/></clipPath><clipPath id="cSIyGt5C0SFkQBiLiZw2Y"><path d="M835.6583711102098,166.10963152528757L1840.023315300448,166.10963152528757L1840.023315300448,759.6401617946804L835.6583711102098,759.6401617946804Z"/></clipPath><clipPath id="wWqkk8z7l0zPJkZcCOiYW"><path d="M835.6583711102098,166.10963152528757L1840.023315300448,166.10963152528757L1840.023315300448,759.6401617946804L835.6583711102098,759.6401617946804Z"/></clipPath><clipPath id="bHgK813sSFyemoSIXpm36"><path d="M835.6583711102098,166.10963152528757L1840.023315300448,166.10963152528757L1840.023315300448,759.6401617946804L835.6583711102098,759.6401617946804Z"/></clipPath><clipPath id="bmuzGSawl8lxXTvcvmwek"><path d="M835.6583711102098,166.10963152528757L1840.023315300448,166.10963152528757L1840.023315300448,759.6401617946804L835.6583711102098,759.6401617946804Z"/></clipPath><clipPath id="MY6YaR-GWE3jQK5XfHvZ-"><path d="M835.6583711102098,166.10963152528757L1840.023315300448,166.10963152528757L1840.023315300448,759.6401617946804L835.6583711102098,759.6401617946804Z"/></clipPath><clipPath id="ZdS932WiRTZtr-xJXvOeQ"><path d="M835.6583711102098,166.10963152528757L1840.023315300448,166.10963152528757L1840.023315300448,759.6401617946804L835.6583711102098,759.6401617946804Z"/></clipPath><clipPath id="iWOPTkdVPTxbq3fKCmHaA"><path d="M835.6583711102098,166.10963152528757L1840.023315300448,166.10963152528757L1840.023315300448,759.6401617946804L835.6583711102098,759.6401617946804Z"/></clipPath><clipPath id="0I3faiZFfXFKRqyO30AxH"><path d="M835.6583711102098,166.10963152528757L1840.023315300448,166.10963152528757L1840.023315300448,759.6401617946804L835.6583711102098,759.6401617946804Z"/></clipPath><clipPath id="tL6pDBwHfkalWG8QykjaB"><path d="M835.6583711102098,166.10963152528757L1840.023315300448,166.10963152528757L1840.023315300448,759.6401617946804L835.6583711102098,759.6401617946804Z"/></clipPath><clipPath id="IJgnXgIKPEZDhJrpmpxvE"><path d="M835.6583711102098,166.10963152528757L1840.023315300448,166.10963152528757L1840.023315300448,759.6401617946804L835.6583711102098,759.6401617946804Z"/></clipPath><clipPath id="8jXk1ex_e9UZLy2UjdjaR"><path d="M835.6583711102098,166.10963152528757L1840.023315300448,166.10963152528757L1840.023315300448,759.6401617946804L835.6583711102098,759.6401617946804Z"/></clipPath><clipPath id="EjzaTouWackTU7j8virKE"><path d="M835.6583711102098,166.10963152528757L1840.023315300448,166.10963152528757L1840.023315300448,759.6401617946804L835.6583711102098,759.6401617946804Z"/></clipPath><clipPath id="ZO6aNtsbVcr2VDirryFT_"><path d="M835.6583711102098,166.10963152528757L1840.023315300448,166.10963152528757L1840.023315300448,759.6401617946804L835.6583711102098,759.6401617946804Z"/></clipPath><clipPath id="HNzjPvSKCPkksTytWnDKy"><path d="M835.6583711102098,166.10963152528757L1840.023315300448,166.10963152528757L1840.023315300448,759.6401617946804L835.6583711102098,759.6401617946804Z"/></clipPath><clipPath id="gxv6Gi24hNh2Ctlbo9X-W"><path d="M835.6583711102098,166.10963152528757L1840.023315300448,166.10963152528757L1840.023315300448,759.6401617946804L835.6583711102098,759.6401617946804Z"/></clipPath><clipPath id="5uNzl4k2VLC9s292NzFRT"><path d="M835.6583711102098,166.10963152528757L1840.023315300448,166.10963152528757L1840.023315300448,759.6401617946804L835.6583711102098,759.6401617946804Z"/></clipPath><clipPath id="n9UDgNP-g3J8FhECINvwZ"><path d="M835.6583711102098,166.10963152528757L1840.023315300448,166.10963152528757L1840.023315300448,759.6401617946804L835.6583711102098,759.6401617946804Z"/></clipPath><clipPath id="JHITe7osp4ucgHbO6u2VZ"><path d="M835.6583711102098,166.10963152528757L1840.023315300448,166.10963152528757L1840.023315300448,759.6401617946804L835.6583711102098,759.6401617946804Z"/></clipPath><clipPath id="crr19WPaDOQ8S2_3Lwb3D"><path d="M835.6583711102098,166.10963152528757L1840.023315300448,166.10963152528757L1840.023315300448,759.6401617946804L835.6583711102098,759.6401617946804Z"/></clipPath><clipPath id="TsHbdgZ99KS5mwnCxm3tu"><path d="M835.6583711102098,166.10963152528757L1840.023315300448,166.10963152528757L1840.023315300448,759.6401617946804L835.6583711102098,759.6401617946804Z"/></clipPath><clipPath id="PkR2qmuxyvc-pTDKU5zTg"><path d="M835.6583711102098,166.10963152528757L1840.023315300448,166.10963152528757L1840.023315300448,759.6401617946804L835.6583711102098,759.6401617946804Z"/></clipPath><clipPath id="P0mPjH11bX9H_iFkO5aDT"><path d="M835.6583711102098,166.10963152528757L1840.023315300448,166.10963152528757L1840.023315300448,759.6401617946804L835.6583711102098,759.6401617946804Z"/></clipPath><clipPath id="jUU2OPpM71-8HMMnw5scx"><path d="M835.6583711102098,166.10963152528757L1840.023315300448,166.10963152528757L1840.023315300448,759.6401617946804L835.6583711102098,759.6401617946804Z"/></clipPath><clipPath id="IBy95eC2O-A7IxVMK6W2K"><path d="M835.6583711102098,166.10963152528757L1840.023315300448,166.10963152528757L1840.023315300448,759.6401617946804L835.6583711102098,759.6401617946804Z"/></clipPath><clipPath id="xJy_Cg2b9lAVizIuL3jfN"><path d="M835.6583711102098,166.10963152528757L1840.023315300448,166.10963152528757L1840.023315300448,759.6401617946804L835.6583711102098,759.6401617946804Z"/></clipPath><clipPath id="ekM7oiSMsGGoUirn7igQt"><path d="M835.6583711102098,166.10963152528757L1840.023315300448,166.10963152528757L1840.023315300448,759.6401617946804L835.6583711102098,759.6401617946804Z"/></clipPath><clipPath id="XbINA5rzdB2aa42IKx5WM"><path d="M835.6583711102098,166.10963152528757L1840.023315300448,166.10963152528757L1840.023315300448,759.6401617946804L835.6583711102098,759.6401617946804Z"/></clipPath><clipPath id="sZhUujGuBjN-orWfs9cRp"><path d="M835.6583711102098,166.10963152528757L1840.023315300448,166.10963152528757L1840.023315300448,759.6401617946804L835.6583711102098,759.6401617946804Z"/></clipPath><clipPath id="Cd3knKckyfc3VIrlN8xw-"><path d="M835.6583711102098,166.10963152528757L1840.023315300448,166.10963152528757L1840.023315300448,759.6401617946804L835.6583711102098,759.6401617946804Z"/></clipPath><clipPath id="zla10_MWmUxZ_CRvsEAwX"><path d="M835.6583711102098,166.10963152528757L1840.023315300448,166.10963152528757L1840.023315300448,759.6401617946804L835.6583711102098,759.6401617946804Z"/></clipPath><clipPath id="TyQbpbUW6XrIfxsw_MmoK"><path d="M835.6583711102098,166.10963152528757L1840.023315300448,166.10963152528757L1840.023315300448,759.6401617946804L835.6583711102098,759.6401617946804Z"/></clipPath><clipPath id="Jd6TJhPvV6_xW-ZppuYie"><path d="M835.6583711102098,166.10963152528757L1840.023315300448,166.10963152528757L1840.023315300448,759.6401617946804L835.6583711102098,759.6401617946804Z"/></clipPath><clipPath id="97BaDF0_bd7_p85kjMiKX"><path d="M835.6583711102098,166.10963152528757L1840.023315300448,166.10963152528757L1840.023315300448,759.6401617946804L835.6583711102098,759.6401617946804Z"/></clipPath><clipPath id="WeB3g1rwHgFJttN1-N6hM"><path d="M835.6583711102098,166.10963152528757L1840.023315300448,166.10963152528757L1840.023315300448,759.6401617946804L835.6583711102098,759.6401617946804Z"/></clipPath><clipPath id="KkhxrSeF8_VPtl1fNk1GK"><path d="M835.6583711102098,166.10963152528757L1840.023315300448,166.10963152528757L1840.023315300448,759.6401617946804L835.6583711102098,759.6401617946804Z"/></clipPath><clipPath id="FF7RZVwBKoG4IGYM9eNgg"><path d="M835.6583711102098,166.10963152528757L1840.023315300448,166.10963152528757L1840.023315300448,759.6401617946804L835.6583711102098,759.6401617946804Z"/></clipPath><clipPath id="00yVdBz4Lnt-GMR0XJUVF"><path d="M835.6583711102098,166.10963152528757L1840.023315300448,166.10963152528757L1840.023315300448,759.6401617946804L835.6583711102098,759.6401617946804Z"/></clipPath><clipPath id="YNAaGN-b9M1zk5d--PNPH"><path d="M835.6583711102098,166.10963152528757L1840.023315300448,166.10963152528757L1840.023315300448,759.6401617946804L835.6583711102098,759.6401617946804Z"/></clipPath><clipPath id="qfxfu56Xnk17nPtGc7uDL"><path d="M835.6583711102098,166.10963152528757L1840.023315300448,166.10963152528757L1840.023315300448,759.6401617946804L835.6583711102098,759.6401617946804Z"/></clipPath><clipPath id="pPsce-hh9tqtDTv8dg8Ac"><path d="M835.6583711102098,166.10963152528757L1840.023315300448,166.10963152528757L1840.023315300448,759.6401617946804L835.6583711102098,759.6401617946804Z"/></clipPath><clipPath id="DPt3DpjrA82ev_deWISkv"><path d="M835.6583711102098,166.10963152528757L1840.023315300448,166.10963152528757L1840.023315300448,759.6401617946804L835.6583711102098,759.6401617946804Z"/></clipPath><clipPath id="yWGJlqJa4d_R8PIhmosta"><path d="M835.6583711102098,166.10963152528757L1840.023315300448,166.10963152528757L1840.023315300448,759.6401617946804L835.6583711102098,759.6401617946804Z"/></clipPath><clipPath id="NwOUerilmJJJFTQGcJ7nT"><path d="M835.6583711102098,166.10963152528757L1840.023315300448,166.10963152528757L1840.023315300448,759.6401617946804L835.6583711102098,759.6401617946804Z"/></clipPath><clipPath id="YYfIkHUh_Do9X5TDoC_3N"><path d="M835.6583711102098,166.10963152528757L1840.023315300448,166.10963152528757L1840.023315300448,759.6401617946804L835.6583711102098,759.6401617946804Z"/></clipPath><clipPath id="NY-9La2GxlGYXTBxaoInx"><path d="M835.6583711102098,166.10963152528757L1840.023315300448,166.10963152528757L1840.023315300448,759.6401617946804L835.6583711102098,759.6401617946804Z"/></clipPath><clipPath id="T24-pO0bFWFagZv-CS5_D"><path d="M835.6583711102098,166.10963152528757L1840.023315300448,166.10963152528757L1840.023315300448,759.6401617946804L835.6583711102098,759.6401617946804Z"/></clipPath><clipPath id="fjOpM7p8GKg9w7XYV7JbG"><path d="M835.6583711102098,166.10963152528757L1840.023315300448,166.10963152528757L1840.023315300448,759.6401617946804L835.6583711102098,759.6401617946804Z"/></clipPath><clipPath id="wip5Hk4_yMBc9bY_EG0e6"><path d="M835.6583711102098,166.10963152528757L1840.023315300448,166.10963152528757L1840.023315300448,759.6401617946804L835.6583711102098,759.6401617946804Z"/></clipPath><clipPath id="PtCUSabyeCDpkqhhar7WX"><path d="M835.6583711102098,166.10963152528757L1840.023315300448,166.10963152528757L1840.023315300448,759.6401617946804L835.6583711102098,759.6401617946804Z"/></clipPath><clipPath id="xZKaJx91laEge0Mzf7eNQ"><path d="M835.6583711102098,166.10963152528757L1840.023315300448,166.10963152528757L1840.023315300448,759.6401617946804L835.6583711102098,759.6401617946804Z"/></clipPath><clipPath id="gH1zBBYS9zaSsUBUz07mH"><path d="M835.6583711102098,166.10963152528757L1840.023315300448,166.10963152528757L1840.023315300448,759.6401617946804L835.6583711102098,759.6401617946804Z"/></clipPath><clipPath id="jrUkbxVnnAk40TceFxDgl"><path d="M835.6583711102098,166.10963152528757L1840.023315300448,166.10963152528757L1840.023315300448,759.6401617946804L835.6583711102098,759.6401617946804Z"/></clipPath><clipPath id="mqIjEKjLH4fffhB0_8gGz"><path d="M835.6583711102098,166.10963152528757L1840.023315300448,166.10963152528757L1840.023315300448,759.6401617946804L835.6583711102098,759.6401617946804Z"/></clipPath><clipPath id="QZOE_ldlSCdYPUIeY731N"><path d="M835.6583711102098,166.10963152528757L1840.023315300448,166.10963152528757L1840.023315300448,759.6401617946804L835.6583711102098,759.6401617946804Z"/></clipPath><clipPath id="RIH9UM5fkQoWXVlBgrE3G"><path d="M835.6583711102098,166.10963152528757L1840.023315300448,166.10963152528757L1840.023315300448,759.6401617946804L835.6583711102098,759.6401617946804Z"/></clipPath><clipPath id="Nq0jSSCDbZ4KkcHX2c33x"><path d="M835.6583711102098,166.10963152528757L1840.023315300448,166.10963152528757L1840.023315300448,759.6401617946804L835.6583711102098,759.6401617946804Z"/></clipPath><clipPath id="gKI3jsoMZy82I7fZdrQua"><path d="M835.6583711102098,166.10963152528757L1840.023315300448,166.10963152528757L1840.023315300448,759.6401617946804L835.6583711102098,759.6401617946804Z"/></clipPath><clipPath id="iW3-sofVbDnsLUHoUSiiO"><path d="M835.6583711102098,166.10963152528757L1840.023315300448,166.10963152528757L1840.023315300448,759.6401617946804L835.6583711102098,759.6401617946804Z"/></clipPath><clipPath id="CG0ov9Jg7lXePjhvuNBzS"><path d="M835.6583711102098,166.10963152528757L1840.023315300448,166.10963152528757L1840.023315300448,759.6401617946804L835.6583711102098,759.6401617946804Z"/></clipPath><clipPath id="DH3rRq8dm5oXKTKeC64R1"><path d="M835.6583711102098,166.10963152528757L1840.023315300448,166.10963152528757L1840.023315300448,759.6401617946804L835.6583711102098,759.6401617946804Z"/></clipPath><clipPath id="ejTrHFymZ5WiI1HfzJEGE"><path d="M835.6583711102098,166.10963152528757L1840.023315300448,166.10963152528757L1840.023315300448,759.6401617946804L835.6583711102098,759.6401617946804Z"/></clipPath><clipPath id="jWCQrjC4cQbQWz3PL-L3c"><path d="M835.6583711102098,166.10963152528757L1840.023315300448,166.10963152528757L1840.023315300448,759.6401617946804L835.6583711102098,759.6401617946804Z"/></clipPath><clipPath id="OqdVsEuql2XVmDOWUxcif"><path d="M835.6583711102098,166.10963152528757L1840.023315300448,166.10963152528757L1840.023315300448,759.6401617946804L835.6583711102098,759.6401617946804Z"/></clipPath><clipPath id="jfEG6iIi_iZfv9hdIr5aU"><path d="M835.6583711102098,166.10963152528757L1840.023315300448,166.10963152528757L1840.023315300448,759.6401617946804L835.6583711102098,759.6401617946804Z"/></clipPath><clipPath id="xWqaX2-Df0ms0McDEIo9Z"><path d="M835.6583711102098,166.10963152528757L1840.023315300448,166.10963152528757L1840.023315300448,759.6401617946804L835.6583711102098,759.6401617946804Z"/></clipPath><clipPath id="WbvmjEsTK5OQba0Lg1Pvm"><path d="M835.6583711102098,166.10963152528757L1840.023315300448,166.10963152528757L1840.023315300448,759.6401617946804L835.6583711102098,759.6401617946804Z"/></clipPath><clipPath id="FMDTYpa5VnbV8I-G4IcCr"><path d="M835.6583711102098,166.10963152528757L1840.023315300448,166.10963152528757L1840.023315300448,759.6401617946804L835.6583711102098,759.6401617946804Z"/></clipPath><clipPath id="5sUerl4B-QrudalHfojip"><path d="M835.6583711102098,166.10963152528757L1840.023315300448,166.10963152528757L1840.023315300448,759.6401617946804L835.6583711102098,759.6401617946804Z"/></clipPath><clipPath id="iBjU0oiq6_Ks2aC3zkOhV"><path d="M835.6583711102098,166.10963152528757L1840.023315300448,166.10963152528757L1840.023315300448,759.6401617946804L835.6583711102098,759.6401617946804Z"/></clipPath><clipPath id="1ANgENB-6p7exok28ILgN"><path d="M835.6583711102098,166.10963152528757L1840.023315300448,166.10963152528757L1840.023315300448,759.6401617946804L835.6583711102098,759.6401617946804Z"/></clipPath><clipPath id="LZvbXXPEp8SjdXuudrFyU"><path d="M835.6583711102098,166.10963152528757L1840.023315300448,166.10963152528757L1840.023315300448,759.6401617946804L835.6583711102098,759.6401617946804Z"/></clipPath><clipPath id="LxjnMcscVgjTDs2h9_P-z"><path d="M835.6583711102098,166.10963152528757L1840.023315300448,166.10963152528757L1840.023315300448,759.6401617946804L835.6583711102098,759.6401617946804Z"/></clipPath><clipPath id="Wy17Sos_Qc0ecKtWHe4qA"><path d="M835.6583711102098,166.10963152528757L1840.023315300448,166.10963152528757L1840.023315300448,759.6401617946804L835.6583711102098,759.6401617946804Z"/></clipPath><clipPath id="7DaKf-GgMA676pYw23QT0"><path d="M835.6583711102098,166.10963152528757L1840.023315300448,166.10963152528757L1840.023315300448,759.6401617946804L835.6583711102098,759.6401617946804Z"/></clipPath><clipPath id="izMXqK7KiIX1RP2SZSRO6"><path d="M835.6583711102098,166.10963152528757L1840.023315300448,166.10963152528757L1840.023315300448,759.6401617946804L835.6583711102098,759.6401617946804Z"/></clipPath><clipPath id="l2-OkGDFF8sLCpFLaMmo1"><path d="M835.6583711102098,166.10963152528757L1840.023315300448,166.10963152528757L1840.023315300448,759.6401617946804L835.6583711102098,759.6401617946804Z"/></clipPath><clipPath id="_h0BOkuY4kZY6pn1HDx7Z"><path d="M835.6583711102098,166.10963152528757L1840.023315300448,166.10963152528757L1840.023315300448,759.6401617946804L835.6583711102098,759.6401617946804Z"/></clipPath><clipPath id="JIQ7M_XsPCXceyxqP07wU"><path d="M835.6583711102098,166.10963152528757L1840.023315300448,166.10963152528757L1840.023315300448,759.6401617946804L835.6583711102098,759.6401617946804Z"/></clipPath><clipPath id="3u8bMFOAraiY1JMnyXXVC"><path d="M835.6583711102098,166.10963152528757L1840.023315300448,166.10963152528757L1840.023315300448,759.6401617946804L835.6583711102098,759.6401617946804Z"/></clipPath><clipPath id="KBazUcWcQtHej49hkOsW_"><path d="M835.6583711102098,166.10963152528757L1840.023315300448,166.10963152528757L1840.023315300448,759.6401617946804L835.6583711102098,759.6401617946804Z"/></clipPath><clipPath id="SDRSJwraHICTk4MxERcc8"><path d="M835.6583711102098,166.10963152528757L1840.023315300448,166.10963152528757L1840.023315300448,759.6401617946804L835.6583711102098,759.6401617946804Z"/></clipPath><clipPath id="IqQGxHHoP9TA2rNuGtXLC"><path d="M835.6583711102098,166.10963152528757L1840.023315300448,166.10963152528757L1840.023315300448,759.6401617946804L835.6583711102098,759.6401617946804Z"/></clipPath><clipPath id="Mt7S39Lg8b08uUTN8BQPw"><path d="M835.6583711102098,166.10963152528757L1840.023315300448,166.10963152528757L1840.023315300448,759.6401617946804L835.6583711102098,759.6401617946804Z"/></clipPath><clipPath id="wM9GLJN3HRlvJrPcFlXq0"><path d="M835.6583711102098,166.10963152528757L1840.023315300448,166.10963152528757L1840.023315300448,759.6401617946804L835.6583711102098,759.6401617946804Z"/></clipPath><clipPath id="rP1bhUdqr3tDkIm0t8f-c"><path d="M835.6583711102098,166.10963152528757L1840.023315300448,166.10963152528757L1840.023315300448,759.6401617946804L835.6583711102098,759.6401617946804Z"/></clipPath><clipPath id="w5eaI-3WD7gwh7BQkx2Yl"><path d="M835.6583711102098,166.10963152528757L1840.023315300448,166.10963152528757L1840.023315300448,759.6401617946804L835.6583711102098,759.6401617946804Z"/></clipPath><clipPath id="BFDjKywMkfGRTD24G6iKt"><path d="M835.6583711102098,166.10963152528757L1840.023315300448,166.10963152528757L1840.023315300448,759.6401617946804L835.6583711102098,759.6401617946804Z"/></clipPath><clipPath id="nxqD10SO0fbUuz2hV4QIW"><path d="M835.6583711102098,166.10963152528757L1840.023315300448,166.10963152528757L1840.023315300448,759.6401617946804L835.6583711102098,759.6401617946804Z"/></clipPath><clipPath id="Z-Z3R2UHtqMPYmh9_V8im"><path d="M835.6583711102098,166.10963152528757L1840.023315300448,166.10963152528757L1840.023315300448,759.6401617946804L835.6583711102098,759.6401617946804Z"/></clipPath><clipPath id="JKSbXosf6-RLIr1PafLqW"><path d="M835.6583711102098,166.10963152528757L1840.023315300448,166.10963152528757L1840.023315300448,759.6401617946804L835.6583711102098,759.6401617946804Z"/></clipPath><clipPath id="uUxkKo3bBn4eWnQ_cIEyi"><path d="M835.6583711102098,166.10963152528757L1840.023315300448,166.10963152528757L1840.023315300448,759.6401617946804L835.6583711102098,759.6401617946804Z"/></clipPath><clipPath id="jglFW1lDxrDpqcIwopKWW"><path d="M835.6583711102098,166.10963152528757L1840.023315300448,166.10963152528757L1840.023315300448,759.6401617946804L835.6583711102098,759.6401617946804Z"/></clipPath><clipPath id="y0-OY8ezPc05ImvDIYfb1"><path d="M835.6583711102098,166.10963152528757L1840.023315300448,166.10963152528757L1840.023315300448,759.6401617946804L835.6583711102098,759.6401617946804Z"/></clipPath><clipPath id="75-EPJVmoQmDPuFW1_S9W"><path d="M835.6583711102098,166.10963152528757L1840.023315300448,166.10963152528757L1840.023315300448,759.6401617946804L835.6583711102098,759.6401617946804Z"/></clipPath><clipPath id="wuH5Hau9fMkVRcmulPOKY"><path d="M835.6583711102098,166.10963152528757L1840.023315300448,166.10963152528757L1840.023315300448,759.6401617946804L835.6583711102098,759.6401617946804Z"/></clipPath><clipPath id="ndBrHYVf4B7fpQapChikP"><path d="M835.6583711102098,166.10963152528757L1840.023315300448,166.10963152528757L1840.023315300448,759.6401617946804L835.6583711102098,759.6401617946804Z"/></clipPath><clipPath id="JLfsQW7THimVGpp_gdZcz"><path d="M835.6583711102098,166.10963152528757L1840.023315300448,166.10963152528757L1840.023315300448,759.6401617946804L835.6583711102098,759.6401617946804Z"/></clipPath><clipPath id="ELJ6RBsncys6mfT3mnBaD"><path d="M835.6583711102098,166.10963152528757L1840.023315300448,166.10963152528757L1840.023315300448,759.6401617946804L835.6583711102098,759.6401617946804Z"/></clipPath><clipPath id="i_fBYMjFEHj9A1Nj0kcXD"><path d="M835.6583711102098,166.10963152528757L1840.023315300448,166.10963152528757L1840.023315300448,759.6401617946804L835.6583711102098,759.6401617946804Z"/></clipPath><clipPath id="D6oGSVZoMG8n2JGK2PrzX"><path d="M835.6583711102098,166.10963152528757L1840.023315300448,166.10963152528757L1840.023315300448,759.6401617946804L835.6583711102098,759.6401617946804Z"/></clipPath><clipPath id="E0QaKwdkpidkXTsYM8XW4"><path d="M835.6583711102098,166.10963152528757L1840.023315300448,166.10963152528757L1840.023315300448,759.6401617946804L835.6583711102098,759.6401617946804Z"/></clipPath><clipPath id="tjyQaqx5f78iI52SrMyNb"><path d="M835.6583711102098,166.10963152528757L1840.023315300448,166.10963152528757L1840.023315300448,759.6401617946804L835.6583711102098,759.6401617946804Z"/></clipPath><clipPath id="DZ9XDwcwsqTDw0nfUhdyW"><path d="M835.6583711102098,166.10963152528757L1840.023315300448,166.10963152528757L1840.023315300448,759.6401617946804L835.6583711102098,759.6401617946804Z"/></clipPath><clipPath id="QHuK4S1fGhsPzQsmfH1x0"><path d="M835.6583711102098,166.10963152528757L1840.023315300448,166.10963152528757L1840.023315300448,759.6401617946804L835.6583711102098,759.6401617946804Z"/></clipPath><clipPath id="NDXc90s3JcEvOSN-JtSBw"><path d="M835.6583711102098,166.10963152528757L1840.023315300448,166.10963152528757L1840.023315300448,759.6401617946804L835.6583711102098,759.6401617946804Z"/></clipPath><clipPath id="GC9bs2PZQh0lgrPKnE9aM"><path d="M835.6583711102098,166.10963152528757L1840.023315300448,166.10963152528757L1840.023315300448,759.6401617946804L835.6583711102098,759.6401617946804Z"/></clipPath><clipPath id="Ji9eLAeAWScrxq95gmk9c"><path d="M835.6583711102098,166.10963152528757L1840.023315300448,166.10963152528757L1840.023315300448,759.6401617946804L835.6583711102098,759.6401617946804Z"/></clipPath><clipPath id="I4wXTImJmNBmjxcJp67Ap"><path d="M835.6583711102098,166.10963152528757L1840.023315300448,166.10963152528757L1840.023315300448,759.6401617946804L835.6583711102098,759.6401617946804Z"/></clipPath><clipPath id="ma33qKo1QCiBDjQb6EkrV"><path d="M835.6583711102098,166.10963152528757L1840.023315300448,166.10963152528757L1840.023315300448,759.6401617946804L835.6583711102098,759.6401617946804Z"/></clipPath><clipPath id="Fnyl4WppQomRQzD6zrIc0"><path d="M835.6583711102098,166.10963152528757L1840.023315300448,166.10963152528757L1840.023315300448,759.6401617946804L835.6583711102098,759.6401617946804Z"/></clipPath><clipPath id="t4uXlk0_UX2DOfyNnr8rL"><path d="M835.6583711102098,166.10963152528757L1840.023315300448,166.10963152528757L1840.023315300448,759.6401617946804L835.6583711102098,759.6401617946804Z"/></clipPath><clipPath id="_NdCHZAAFM6X8NJ6dIe3g"><path d="M835.6583711102098,166.10963152528757L1840.023315300448,166.10963152528757L1840.023315300448,759.6401617946804L835.6583711102098,759.6401617946804Z"/></clipPath><clipPath id="oRG9wrzjz4YOAXI_5PkQZ"><path d="M835.6583711102098,166.10963152528757L1840.023315300448,166.10963152528757L1840.023315300448,759.6401617946804L835.6583711102098,759.6401617946804Z"/></clipPath><clipPath id="2QkTpDkYbpCIVa87mnDJO"><path d="M835.6583711102098,166.10963152528757L1840.023315300448,166.10963152528757L1840.023315300448,759.6401617946804L835.6583711102098,759.6401617946804Z"/></clipPath><clipPath id="wx4gmF6Sk5gJuCB7g4Z3K"><path d="M835.6583711102098,166.10963152528757L1840.023315300448,166.10963152528757L1840.023315300448,759.6401617946804L835.6583711102098,759.6401617946804Z"/></clipPath><clipPath id="uazSOvjzSDAek2Zfd943H"><path d="M835.6583711102098,166.10963152528757L1840.023315300448,166.10963152528757L1840.023315300448,759.6401617946804L835.6583711102098,759.6401617946804Z"/></clipPath><clipPath id="ef8DS-27BXmhGRCdtPwNW"><path d="M835.6583711102098,166.10963152528757L1840.023315300448,166.10963152528757L1840.023315300448,759.6401617946804L835.6583711102098,759.6401617946804Z"/></clipPath><clipPath id="E_ZRFRzMfaQxQKdnxq1On"><path d="M835.6583711102098,166.10963152528757L1840.023315300448,166.10963152528757L1840.023315300448,759.6401617946804L835.6583711102098,759.6401617946804Z"/></clipPath></defs><g clip-path="url(#vP0uAM3W_-9NtkN1OdUuV)"><g transform="matrix(1, 0, 0, 1, 1348.72, 175.07)" opacity="1"><g><path d="M0, 0L483, 0,483, 282,0, 282Z" fill="#ddedfa"/><path d="M0, 0L483, 0,483, 282,0, 282Z" stroke-width="2" stroke="#4dabf7" fill="none"/></g></g></g><g clip-path="url(#XJVcfSGhvlsiduu7OPVOJ)"><g transform="matrix(1, 0, 0, 1, 847.93, 468.13)" opacity="1"><g><path d="M0, 0L483, 0,483, 282,0, 282Z" fill="#ddedfa"/><path d="M0, 0L483, 0,483, 282,0, 282Z" stroke-width="2" stroke="#4dabf7" fill="none"/></g></g></g><g clip-path="url(#gaK0enRFzP6ZnlBsRT034)"><g transform="matrix(1, 0, 0, 1, 1346.93, 467.13)" opacity="1"><g><path d="M0, 0L483, 0,483, 282,0, 282Z" fill="#ddedfa"/><path d="M0, 0L483, 0,483, 282,0, 282Z" stroke-width="2" stroke="#4dabf7" fill="none"/></g></g></g><g clip-path="url(#Fq0Zo9JZaVBF515nAsaEF)"><g transform="matrix(0, -1, 1, 0, 1241.93, 677.63)" opacity="1"><path d="M19.7828,-0.1738 L31.9884,-0.5214 Q38.0913,-0.6952 40.61,5.8328 L50.0354,30.1623 Q52.5623,36.6903 45.56,36.5863 L6.0222,35.9991 Q-0.977,35.8952 1.75,29.4495 L11.626,6.1394 Q14.3561,-0.3063 20.47,-0.1185 L32.722,0.257 Q38.844,0.4448 41.32,6.9904 L49.7474,29.2116 Q52.2284,35.7572 45.23,35.9103 L7.4849,36.7361 Q0.4866,36.8893 2.88,30.3127 L11.357,7.0736 Q13.7547,0.4971 19.78,-0.1738 " fill="none" stroke="#1d1d1d" stroke-width="3.5"/></g></g><g clip-path="url(#ZVn5I83_MiySzWQFrXlzG)"><g transform="matrix(0, -1, 1, 0, 1288.93, 658.13)" opacity="1"><path d="M3.5263,0.2903 L10.5788,0.871 Q14.105,1.1613 13.73,4.0505 L12.989,9.829 Q12.617,12.7182 9.36,12.5007 L2.8699,12.0658 Q-0.3791,11.8484 -0.3459,8.8595 L-0.2797,2.8819 Q-0.2465,-0.107 3.30,0.1487 L10.3942,0.6599 Q13.9411,0.9155 13.76,3.5724 L13.4081,8.886 Q13.2305,11.5429 9.73,11.8616 L2.7337,12.4991 Q-0.7653,12.8179 -0.5456,9.6305 L-0.1062,3.2559 Q0.1135,0.0685 3.52,0.2903 " fill="none" stroke="#1d1d1d" stroke-width="3.5"/></g></g><g clip-path="url(#ULiFAVFdsRRq3YJDIsC3n)"><g transform="matrix(0, -1, 1, 0, 1241.93, 734.63)" opacity="1"><path d="M19.7413,0.053 L31.864,0.159 Q37.9253,0.2121 40.60,6.6799 L49.8551,29.0349 Q52.5322,35.5028 45.53,35.4625 L5.9852,35.2348 Q-1.0147,35.1945 1.48,28.6558 L10.0687,6.196 Q12.5678,-0.3427 19.09,-0.5275 L32.1472,-0.8971 Q38.6737,-1.0819 40.96,5.5321 L49.4057,29.885 Q51.6979,36.4991 44.69,36.3362 L7.8849,35.4792 Q0.8868,35.3163 3.06,28.6646 L10.6632,5.4943 Q12.8438,-1.1574 19.74,0.053 " fill="none" stroke="#1d1d1d" stroke-width="3.5"/></g></g><g clip-path="url(#OLGLV8eqUUaMyGWGFfNOk)"><g transform="matrix(0, -1, 1, 0, 1288.93, 715.13)" opacity="1"><path d="M3.499,0.0504 L10.4969,0.1512 Q13.9959,0.2016 13.76,3.3571 L13.2999,9.6681 Q13.068,12.8236 9.88,12.4757 L3.5061,11.78 Q0.3188,11.4321 0.49,8.5276 L0.8368,2.7186 Q1.0095,-0.1859 4.04,0.0599 L10.1228,0.5515 Q13.1606,0.7973 13.24,3.6068 L13.4082,9.2259 Q13.4907,12.0354 10.07,12.2702 L3.2501,12.74 Q-0.1634,12.9749 -0.1537,9.7213 L-0.1344,3.2141 Q-0.1247,-0.0395 3.49,0.0504 " fill="none" stroke="#1d1d1d" stroke-width="3.5"/></g></g><g clip-path="url(#INQ0sAA0q_IfZ_2O3AhyQ)"><g transform="matrix(0, -1, 1, 0, 1241.93, 535.63)" opacity="1"><path d="M20.1184,-0.0133 L32.9953,-0.0398 Q39.4337,-0.0531 41.80,6.5334 L49.9402,29.1437 Q52.3103,35.7303 45.31,35.9123 L6.7634,36.9152 Q-0.2342,37.0972 2.29,30.5699 L11.6949,6.3028 Q14.2235,-0.2246 20.48,-0.1169 L33.0065,0.0986 Q39.2675,0.2063 41.56,6.8173 L49.2874,28.9936 Q51.5885,35.6046 44.58,35.7027 L7.4135,36.2238 Q0.4142,36.3219 2.87,29.7685 L11.5421,6.6803 Q14.0023,0.1269 20.11,-0.0133 " fill="none" stroke="#1d1d1d" stroke-width="3.5"/></g></g><g clip-path="url(#SXOVhyO7PnnWtWIKmezjD)"><g transform="matrix(0, -1, 1, 0, 1288.93, 516.13)" opacity="1"><path d="M3.1501,0.2741 L9.4504,0.8222 Q12.6005,1.0963 12.56,3.8086 L12.502,9.2334 Q12.4691,11.9458 9.62,12.0831 L3.9395,12.3578 Q1.0963,12.4952 0.79,9.6138 L0.2035,3.851 Q-0.0941,0.9696 3.25,0.551 L9.9515,-0.2862 Q13.3001,-0.7048 13.33,2.6405 L13.393,9.3309 Q13.424,12.6761 10.18,12.4588 L3.7166,12.0241 Q0.4807,11.8067 0.30,8.7785 L-0.0472,2.722 Q-0.2231,-0.3063 3.15,0.2741 " fill="none" stroke="#1d1d1d" stroke-width="3.5"/></g></g><g clip-path="url(#HKaLrGSQqs98VCiYKrnx1)"><g transform="matrix(0, -1, 1, 0, 1241.93, 592.63)" opacity="1"><path d="M19.6754,0.0975 L31.6663,0.2924 Q37.6617,0.3899 40.40,6.8298 L50.3152,30.0914 Q53.0587,36.5313 46.06,36.3796 L6.4084,35.52 Q-0.59,35.3683 1.84,28.8054 L10.154,6.4088 Q12.5888,-0.1541 19.31,0.0627 L32.756,0.4965 Q39.4784,0.7134 41.86,7.2922 L49.607,28.5778 Q51.9984,35.1567 45.00,35.337 L7.8976,36.2934 Q0.9,36.4738 3.37,29.9247 L11.983,7.1069 Q14.4547,0.5578 19.67,0.0975 " fill="none" stroke="#1d1d1d" stroke-width="3.5"/></g></g><g clip-path="url(#s-QK4WzeuRv_LIDQyJ52v)"><g transform="matrix(0, -1, 1, 0, 1288.93, 573.13)" opacity="1"><path d="M3.1363,-0.0104 L9.4088,-0.0312 Q12.5451,-0.0417 12.65,3.1098 L12.872,9.4128 Q12.9809,12.5643 9.85,12.2215 L3.5972,11.5359 Q0.4692,11.1931 0.58,8.423 L0.8128,2.8829 Q0.9273,0.1128 3.88,-0.1993 L9.7967,-0.8236 Q12.7532,-1.1357 12.85,2.144 L13.0442,8.7034 Q13.1412,11.9831 10.13,11.8792 L4.123,11.6712 Q1.1169,11.5672 0.96,8.6506 L0.6745,2.8173 Q0.527,-0.0994 3.13,-0.0104 " fill="none" stroke="#1d1d1d" stroke-width="3.5"/></g></g><g clip-path="url(#KSkI5YCn-bYILqDc980hq)"><g transform="matrix(0, -1, 1, 0, 1138.26, 677.63)" opacity="1"><path d="M19.5626,0.1757 L31.3278,0.5272 Q37.2104,0.7029 39.78,7.2141 L49.0025,30.5796 Q51.5724,37.0907 44.57,37.0616 L6.756,36.904 Q-0.2439,36.8749 2.28,30.3496 L11.4914,6.6533 Q14.0253,0.128 20.13,-0.0854 L32.3404,-0.5123 Q38.4455,-0.7257 40.75,5.8833 L48.7692,28.8527 Q51.0759,35.4617 44.07,35.6296 L6.7901,36.5241 Q-0.2079,36.692 2.41,30.2023 L11.6188,7.438 Q14.2425,0.9483 19.56,0.1757 " fill="none" stroke="#1d1d1d" stroke-width="3.5"/></g></g><g clip-path="url(#JrXKkk_8eKr9oqehD3mcK)"><g transform="matrix(0, -1, 1, 0, 1185.26, 658.13)" opacity="1"><path d="M3.2115,-0.2584 L9.6345,-0.7752 Q12.846,-1.0336 13.03,2.3675 L13.4098,9.1697 Q13.5977,12.5708 10.22,12.5795 L3.4814,12.5968 Q0.1093,12.6054 -0.1727,9.26 L-0.7366,2.5692 Q-1.0186,-0.7763 2.69,-0.3007 L10.1102,0.6504 Q13.8199,1.126 13.62,3.8608 L13.2355,9.3306 Q13.0407,12.0654 9.64,12.0372 L2.8517,11.9807 Q-0.5447,11.9525 -0.2621,9.0891 L0.3032,3.3625 Q0.5858,0.4991 3.21,-0.2584 " fill="none" stroke="#1d1d1d" stroke-width="3.5"/></g></g><g clip-path="url(#U5LaFmn-bhMxf4vF_8DT_)"><g transform="matrix(0, -1, 1, 0, 1138.26, 734.63)" opacity="1"><path d="M19.758,0.266 L31.9141,0.7981 Q37.9921,1.0641 40.67,7.5312 L49.3253,28.4246 Q52.0041,34.8917 45.00,35.0282 L8.0713,35.7482 Q1.0727,35.8846 3.52,29.3289 L12.1625,6.2586 Q14.6165,-0.2971 20.45,-0.2824 L32.1182,-0.2529 Q37.9521,-0.2382 40.70,6.1989 L50.2961,28.6522 Q53.0464,35.0893 46.05,35.3629 L7.9719,36.8524 Q0.9773,37.126 3.45,30.579 L12.3134,7.1683 Q14.7908,0.6214 19.75,0.266 " fill="none" stroke="#1d1d1d" stroke-width="3.5"/></g></g><g clip-path="url(#cSIyGt5C0SFkQBiLiZw2Y)"><g transform="matrix(0, -1, 1, 0, 1185.26, 715.13)" opacity="1"><path d="M3.3308,0.2806 L9.9923,0.8417 Q13.323,1.1223 13.35,4.0631 L13.4197,9.9448 Q13.4519,12.8856 9.96,12.516 L2.9963,11.7766 Q-0.4888,11.4069 -0.2775,8.6238 L0.1453,3.0576 Q0.3567,0.2745 3.65,0.1787 L10.2368,-0.013 Q13.5302,-0.1088 13.26,3.0302 L12.745,9.3083 Q12.4832,12.4473 9.61,12.3964 L3.8843,12.2945 Q1.0179,12.2435 0.58,9.2615 L-0.2778,3.2974 Q-0.7097,0.3153 3.33,0.2806 " fill="none" stroke="#1d1d1d" stroke-width="3.5"/></g></g><g clip-path="url(#wWqkk8z7l0zPJkZcCOiYW)"><g transform="matrix(0, -1, 1, 0, 1138.26, 535.63)" opacity="1"><path d="M20.0714,0.0855 L32.8541,0.2565 Q39.2454,0.342 41.42,6.9943 L48.6899,29.1799 Q50.8685,35.8322 43.86,35.8116 L6.5202,35.7014 Q-0.4798,35.6808 1.94,29.113 L10.6153,5.5899 Q13.037,-0.9779 19.19,-0.9202 L31.5165,-0.8048 Q37.6764,-0.7472 40.09,5.8218 L48.5043,28.6634 Q50.9227,35.2324 43.92,35.1866 L7.2656,34.947 Q0.2658,34.9012 2.89,28.4152 L12.1983,5.505 Q14.8311,-0.981 20.07,0.0855 " fill="none" stroke="#1d1d1d" stroke-width="3.5"/></g></g><g clip-path="url(#bHgK813sSFyemoSIXpm36)"><g transform="matrix(0, -1, 1, 0, 1185.26, 516.13)" opacity="1"><path d="M3.0487,-0.0834 L9.146,-0.2502 Q12.1946,-0.3336 12.15,2.7601 L12.0728,8.9476 Q12.0321,12.0414 8.86,12.2281 L2.5444,12.6015 Q-0.6182,12.7883 -0.6276,9.5496 L-0.6463,3.0722 Q-0.6557,-0.1665 2.89,-0.3004 L9.987,-0.5683 Q13.5346,-0.7022 13.66,2.6338 L13.9131,9.3058 Q14.0393,12.6418 10.66,12.5803 L3.9284,12.4573 Q0.5581,12.3959 0.68,9.5863 L0.9293,3.9673 Q1.053,1.1577 3.04,-0.0834 " fill="none" stroke="#1d1d1d" stroke-width="3.5"/></g></g><g clip-path="url(#bmuzGSawl8lxXTvcvmwek)"><g transform="matrix(0, -1, 1, 0, 1138.26, 592.63)" opacity="1"><path d="M20.0762,0.2424 L32.8687,0.7273 Q39.265,0.9698 41.75,7.5134 L50.2633,29.9186 Q52.7494,36.4622 45.74,36.5179 L7.5251,36.8218 Q0.5253,36.8775 2.93,30.3043 L11.2034,7.7146 Q13.6102,1.1413 19.96,0.8649 L32.6715,0.3121 Q39.0252,0.0357 41.55,6.5609 L50.0218,28.3496 Q52.5561,34.8747 45.56,35.1502 L7.4376,36.6515 Q0.4431,36.927 2.86,30.358 L11.9859,5.5707 Q14.4041,-0.9983 20.07,0.2424 " fill="none" stroke="#1d1d1d" stroke-width="3.5"/></g></g><g clip-path="url(#MY6YaR-GWE3jQK5XfHvZ-)"><g transform="matrix(0, -1, 1, 0, 1185.26, 573.13)" opacity="1"><path d="M3.3677,0.1218 L10.1031,0.3653 Q13.4708,0.487 13.07,3.4044 L12.2702,9.239 Q11.87,12.1564 8.96,12.3262 L3.1657,12.6657 Q0.2643,12.8355 0.16,9.4138 L-0.0433,2.5705 Q-0.1458,-0.8512 2.98,-0.8085 L9.2596,-0.7231 Q12.3947,-0.6804 12.69,2.5195 L13.3089,8.9194 Q13.6136,12.1193 10.23,12.351 L3.4652,12.8144 Q0.0824,13.0461 -0.0908,9.8106 L-0.4371,3.3395 Q-0.6103,0.104 3.36,0.1218 " fill="none" stroke="#1d1d1d" stroke-width="3.5"/></g></g><g clip-path="url(#ZdS932WiRTZtr-xJXvOeQ)"><g transform="matrix(0, -1, 1, 0, 1034.60, 677.63)" opacity="1"><path d="M19.7699,0.0341 L31.9498,0.1023 Q38.0397,0.1363 40.60,6.6498 L49.4607,29.1494 Q52.0247,35.6629 45.02,35.825 L6.4601,36.7182 Q-0.538,36.8803 1.93,30.3322 L10.7483,7.0143 Q13.2228,0.4663 19.63,0.3364 L32.4545,0.0768 Q38.8651,-0.053 41.13,6.5704 L48.5768,28.3425 Q50.8421,34.9658 43.84,34.9894 L6.6557,35.1145 Q-0.3443,35.1381 2.15,28.598 L10.239,7.4013 Q12.7345,0.8612 19.76,0.0341 " fill="none" stroke="#1d1d1d" stroke-width="3.5"/></g></g><g clip-path="url(#iWOPTkdVPTxbq3fKCmHaA)"><g transform="matrix(0, -1, 1, 0, 1081.60, 658.13)" opacity="1"><path d="M2.9818,0.2286 L8.9455,0.6858 Q11.9274,0.9145 12.24,3.8796 L12.8734,9.8098 Q13.1888,12.7749 10.07,12.3402 L3.8469,11.4708 Q0.733,11.0361 0.65,8.4914 L0.4866,3.4022 Q0.4045,0.8576 3.75,0.7546 L10.4428,0.5487 Q13.7889,0.4457 13.63,3.322 L13.3287,9.0746 Q13.1753,11.9509 9.80,11.8778 L3.0514,11.7316 Q-0.3232,11.6584 -0.1728,8.7923 L0.1279,3.0601 Q0.2782,0.194 2.98,0.2286 " fill="none" stroke="#1d1d1d" stroke-width="3.5"/></g></g><g clip-path="url(#0I3faiZFfXFKRqyO30AxH)"><g transform="matrix(0, -1, 1, 0, 1034.60, 734.63)" opacity="1"><path d="M20.0507,-0.0031 L32.7922,-0.0092 Q39.1629,-0.0123 41.65,6.5278 L50.3425,29.2884 Q52.8378,35.8285 45.83,35.7593 L7.9217,35.3841 Q0.922,35.3148 3.10,28.6652 L10.4448,6.3593 Q12.6317,-0.2904 18.89,-0.4686 L31.4241,-0.825 Q37.6882,-1.0032 40.16,5.5438 L49.3948,29.9357 Q51.872,36.4827 44.87,36.4244 L6.9556,36.1087 Q-0.0442,36.0504 2.52,29.5371 L11.7491,6.1007 Q14.3138,-0.4125 20.05,-0.0031 " fill="none" stroke="#1d1d1d" stroke-width="3.5"/></g></g><g clip-path="url(#tL6pDBwHfkalWG8QykjaB)"><g transform="matrix(0, -1, 1, 0, 1081.60, 715.13)" opacity="1"><path d="M3.2348,0.1177 L9.7043,0.3531 Q12.9391,0.4707 12.77,3.5463 L12.4362,9.6974 Q12.2686,12.7729 9.27,12.717 L3.2974,12.6052 Q0.307,12.5494 -0.007,9.1961 L-0.6351,2.4895 Q-0.9492,-0.8638 2.52,-0.699 L9.4799,-0.3693 Q12.9562,-0.2044 12.74,2.8165 L12.3197,8.8583 Q12.1075,11.8792 8.80,11.9011 L2.1999,11.9447 Q-1.1026,11.9665 -0.9676,8.8646 L-0.6977,2.6607 Q-0.5627,-0.4413 3.23,0.1177 " fill="none" stroke="#1d1d1d" stroke-width="3.5"/></g></g><g clip-path="url(#IJgnXgIKPEZDhJrpmpxvE)"><g transform="matrix(0, -1, 1, 0, 1034.60, 535.63)" opacity="1"><path d="M19.59,-0.1934 L31.4101,-0.5801 Q37.3202,-0.7734 39.79,5.7753 L48.7216,29.4241 Q51.1942,35.9729 44.19,35.817 L7.0306,34.9894 Q0.0324,34.8335 2.47,28.2721 L10.2941,7.2239 Q12.7328,0.6625 19.23,0.2053 L32.2348,-0.7089 Q38.7355,-1.1661 41.03,5.4464 L48.9924,28.3649 Q51.2891,34.9774 44.29,35.1458 L7.1546,36.0395 Q0.1567,36.2079 2.53,29.6232 L10.5658,7.3502 Q12.941,0.7655 19.59,-0.1934 " fill="none" stroke="#1d1d1d" stroke-width="3.5"/></g></g><g clip-path="url(#8jXk1ex_e9UZLy2UjdjaR)"><g transform="matrix(0, -1, 1, 0, 1081.60, 516.13)" opacity="1"><path d="M3.3785,0.1114 L10.1356,0.3343 Q13.5141,0.4457 13.60,3.5921 L13.7863,9.8848 Q13.8771,13.0312 10.69,13.0573 L4.3417,13.1095 Q1.1633,13.1357 0.75,9.6818 L-0.0746,2.7741 Q-0.4872,-0.6798 2.77,-0.2275 L9.2979,0.6771 Q12.5596,1.1294 12.57,3.9678 L12.6121,9.6446 Q12.6296,12.483 9.18,12.1727 L2.3002,11.552 Q-1.1429,11.2417 -1.0786,8.5911 L-0.9502,3.2901 Q-0.886,0.6396 3.37,0.1114 " fill="none" stroke="#1d1d1d" stroke-width="3.5"/></g></g><g clip-path="url(#EjzaTouWackTU7j8virKE)"><g transform="matrix(0, -1, 1, 0, 1034.60, 592.63)" opacity="1"><path d="M19.9169,-0.0646 L32.3906,-0.1938 Q38.6275,-0.2584 41.18,6.2576 L50.0414,28.8193 Q52.5991,35.3353 45.59,35.3078 L8.0752,35.1603 Q1.0753,35.1328 3.53,28.5798 L11.7192,6.7965 Q14.1807,0.2436 20.01,0.0813 L31.6816,-0.2432 Q37.5152,-0.4054 39.90,6.1728 L48.6211,30.1215 Q51.0143,36.6996 44.01,36.5114 L7.7228,35.5353 Q0.7254,35.3471 3.07,28.7537 L11.2483,5.8371 Q13.5994,-0.7562 19.91,-0.0646 " fill="none" stroke="#1d1d1d" stroke-width="3.5"/></g></g><g clip-path="url(#ZO6aNtsbVcr2VDirryFT_)"><g transform="matrix(0, -1, 1, 0, 1081.60, 573.13)" opacity="1"><path d="M3.0173,-0.0722 L9.0518,-0.2167 Q12.0691,-0.289 12.05,2.5578 L12.0231,8.2514 Q12.0077,11.0982 8.97,11.4943 L2.9093,12.2864 Q-0.1235,12.6825 -0.2174,9.6209 L-0.4052,3.4977 Q-0.4992,0.4361 3.15,0.4641 L10.4748,0.5201 Q14.1328,0.5481 13.89,3.3799 L13.423,9.0436 Q13.1865,11.8755 9.71,11.6242 L2.7733,11.1215 Q-0.6978,10.8702 -0.3879,8.4117 L0.2319,3.4947 Q0.5419,1.0362 3.01,-0.0722 " fill="none" stroke="#1d1d1d" stroke-width="3.5"/></g></g><g clip-path="url(#HNzjPvSKCPkksTytWnDKy)"><g transform="matrix(0, -1, 1, 0, 930.93, 673.63)" opacity="1"><path d="M20.0917,-0.2487 L32.9152,-0.7462 Q39.327,-0.995 41.52,5.6499 L49.317,29.1628 Q51.5181,35.8077 44.52,35.9758 L7.7525,36.859 Q0.7545,37.0271 2.96,30.3868 L10.8056,6.897 Q13.0208,0.2567 19.61,0.4523 L32.8102,0.8435 Q39.4066,1.039 41.64,7.6721 L48.9188,29.2482 Q51.1555,35.8813 44.15,35.8337 L7.6387,35.5858 Q0.6389,35.5382 2.97,28.9378 L10.9144,6.4461 Q13.2457,-0.1542 20.09,-0.2487 " fill="none" stroke="#1d1d1d" stroke-width="3.5"/></g></g><g clip-path="url(#gxv6Gi24hNh2Ctlbo9X-W)"><g transform="matrix(0, -1, 1, 0, 977.93, 654.13)" opacity="1"><path d="M3.3272,-0.0404 L9.9817,-0.1212 Q13.3089,-0.1616 13.12,2.9058 L12.7655,9.0406 Q12.5843,12.1081 9.54,12.0629 L3.4797,11.9727 Q0.4448,11.9275 0.34,8.8487 L0.1523,2.6911 Q0.0548,-0.3877 3.01,-0.2218 L8.931,0.1099 Q11.8897,0.2758 12.22,3.4746 L12.8821,9.8722 Q13.2128,13.0711 10.17,13.0923 L4.0884,13.1346 Q1.0469,13.1558 0.62,9.7763 L-0.2284,3.0171 Q-0.6535,-0.3625 3.32,-0.0404 " fill="none" stroke="#1d1d1d" stroke-width="3.5"/></g></g><g clip-path="url(#5uNzl4k2VLC9s292NzFRT)"><g transform="matrix(0, -1, 1, 0, 930.93, 730.63)" opacity="1"><path d="M19.6325,0.2097 L31.5374,0.6291 Q37.4899,0.8388 40.01,7.3668 L48.6377,29.6383 Q51.1646,36.1663 44.16,36.0504 L6.6072,35.4287 Q-0.3919,35.3129 2.12,28.7803 L10.4289,7.2071 Q12.9439,0.6745 19.03,0.3745 L31.2138,-0.2254 Q37.3037,-0.5253 39.79,6.0146 L48.5859,29.0375 Q51.0817,35.5774 44.08,35.4975 L6.3558,35.067 Q-0.6437,34.9871 1.97,28.4974 L11.0842,5.9777 Q13.7078,-0.512 19.63,0.2097 " fill="none" stroke="#1d1d1d" stroke-width="3.5"/></g></g><g clip-path="url(#n9UDgNP-g3J8FhECINvwZ)"><g transform="matrix(0, -1, 1, 0, 977.93, 711.13)" opacity="1"><path d="M3.2941,0.1708 L9.8822,0.5123 Q13.1762,0.6831 12.97,3.4964 L12.5732,9.1232 Q12.3722,11.9365 9.42,11.6647 L3.5315,11.121 Q0.5846,10.8491 0.29,8.4039 L-0.2767,3.5136 Q-0.5639,1.0684 2.92,1.0919 L9.8945,1.1388 Q13.3807,1.1622 13.07,3.9353 L12.4749,9.4817 Q12.173,12.2548 9.23,12.3423 L3.359,12.5172 Q0.421,12.6047 0.31,9.6027 L0.0983,3.5988 Q-0.0092,0.5968 3.29,0.1708 " fill="none" stroke="#1d1d1d" stroke-width="3.5"/></g></g><g clip-path="url(#JHITe7osp4ucgHbO6u2VZ)"><g transform="matrix(0, -1, 1, 0, 930.93, 531.63)" opacity="1"><path d="M19.6838,0.2367 L31.6914,0.7101 Q37.6952,0.9467 40.39,7.4062 L49.7067,29.7114 Q52.4041,36.1708 45.40,36.0195 L7.0757,35.1909 Q0.0773,35.0396 2.62,28.5211 L11.3003,6.3665 Q13.8517,-0.1519 20.10,-0.2998 L32.6158,-0.5955 Q38.8705,-0.7434 41.21,5.8536 L49.8028,30.0657 Q52.1436,36.6627 45.14,36.7085 L7.6268,36.9543 Q0.627,37.0002 3.06,30.4402 L12.2946,5.6634 Q14.7371,-0.8967 19.68,0.2367 " fill="none" stroke="#1d1d1d" stroke-width="3.5"/></g></g><g clip-path="url(#crr19WPaDOQ8S2_3Lwb3D)"><g transform="matrix(0, -1, 1, 0, 977.93, 512.13)" opacity="1"><path d="M3.3877,0.0434 L10.1632,0.1301 Q13.5509,0.1734 13.51,2.9782 L13.437,8.5879 Q13.399,11.3928 10.08,11.6469 L3.4444,12.1552 Q0.1261,12.4093 0.21,9.0482 L0.4065,2.3259 Q0.4999,-1.0352 3.75,-0.5772 L10.2789,0.3389 Q13.5385,0.7969 13.21,3.7469 L12.5702,9.6468 Q12.2474,12.5968 9.07,12.4454 L2.7344,12.1426 Q-0.4366,11.9913 -0.2414,8.7933 L0.1489,2.3974 Q0.3441,-0.8005 3.38,0.0434 " fill="none" stroke="#1d1d1d" stroke-width="3.5"/></g></g><g clip-path="url(#TsHbdgZ99KS5mwnCxm3tu)"><g transform="matrix(0, -1, 1, 0, 930.93, 588.63)" opacity="1"><path d="M19.9273,0.0134 L32.4218,0.0402 Q38.6691,0.0536 41.08,6.622 L49.6054,29.7367 Q52.0254,36.3051 45.02,36.3985 L7.8905,36.8941 Q0.8911,36.9876 3.19,30.3793 L11.6723,6.1289 Q13.9811,-0.4794 19.80,-0.2558 L31.4538,0.1914 Q37.278,0.4151 40.04,6.8431 L49.6809,29.1825 Q52.4523,35.6105 45.45,35.7702 L7.48,36.6364 Q0.4818,36.796 2.93,30.2394 L12.1221,5.6668 Q14.5738,-0.8898 19.92,0.0134 " fill="none" stroke="#1d1d1d" stroke-width="3.5"/></g></g><g clip-path="url(#PkR2qmuxyvc-pTDKU5zTg)"><g transform="matrix(0, -1, 1, 0, 977.93, 569.13)" opacity="1"><path d="M3.1638,0.0281 L9.4914,0.0844 Q12.6552,0.1126 12.68,2.8123 L12.7361,8.2116 Q12.763,10.9112 9.68,11.1414 L3.5393,11.6018 Q0.4647,11.832 0.36,8.804 L0.1798,2.7478 Q0.0848,-0.2803 3.42,-0.0372 L10.1147,0.4489 Q13.458,0.6919 13.44,3.6293 L13.4098,9.504 Q13.3938,12.4413 10.03,12.2644 L3.3258,11.9106 Q-0.0302,11.7336 0.17,8.9319 L0.5937,3.3284 Q0.8016,0.5267 3.16,0.0281 " fill="none" stroke="#1d1d1d" stroke-width="3.5"/></g></g><g clip-path="url(#P0mPjH11bX9H_iFkO5aDT)"><g transform="matrix(1, 0, 0, 1, 1357.78, 658.15)" opacity="1"><path d="M19.6094,0.0593 L31.4681,0.178 Q37.3975,0.2373 39.98,6.7433 L49.4211,30.5214 Q52.0042,37.0274 45.00,36.8774 L6.2649,36.0472 Q-0.7335,35.8972 1.93,29.4264 L11.827,5.4552 Q14.4968,-1.0157 20.49,-0.6634 L32.4862,0.0412 Q38.4827,0.3935 40.83,6.9851 L48.5383,28.5248 Q50.8944,35.1164 43.89,35.2469 L7.6248,35.9237 Q0.626,36.0542 3.03,29.4818 L11.5759,6.1797 Q13.9849,-0.3927 19.60,0.0593 " fill="none" stroke="#1d1d1d" stroke-width="3.5"/></g></g><g clip-path="url(#jUU2OPpM71-8HMMnw5scx)"><g transform="matrix(1, 0, 0, 1, 1377.28, 705.15)" opacity="1"><path d="M3.4656,-0.0338 L10.3967,-0.1013 Q13.8622,-0.1351 13.51,2.6773 L12.8332,8.3021 Q12.4902,11.1145 9.38,11.0685 L3.178,10.9765 Q0.0739,10.9306 -0.0749,7.9632 L-0.3726,2.0286 Q-0.5214,-0.9387 3.12,-0.9012 L10.4279,-0.8263 Q14.0777,-0.7888 13.93,2.2314 L13.6456,8.2719 Q13.5015,11.2921 10.25,11.5995 L3.7513,12.2141 Q0.5013,12.5215 0.44,9.4707 L0.3469,3.3691 Q0.2955,0.3183 3.46,-0.0338 " fill="none" stroke="#1d1d1d" stroke-width="3.5"/></g></g><g clip-path="url(#IBy95eC2O-A7IxVMK6W2K)"><g transform="matrix(1, 0, 0, 1, 1415.81, 658.15)" opacity="1"><path d="M19.8578,0.0735 L32.2135,0.2204 Q38.3914,0.2938 41.04,6.7704 L50.1609,28.9937 Q52.8169,35.4702 45.81,35.4318 L7.8893,35.2235 Q0.8895,35.185 3.25,28.5972 L11.351,6.0635 Q13.7176,-0.5243 19.88,-0.3816 L32.2264,-0.0962 Q38.396,0.0465 40.88,6.588 L49.5995,29.46 Q52.0911,36.0015 45.09,36.1346 L6.3731,36.8706 Q-0.6256,37.0037 1.73,30.4127 L10.4344,6.0864 Q12.7922,-0.5046 19.85,0.0735 " fill="none" stroke="#1d1d1d" stroke-width="3.5"/></g></g><g clip-path="url(#xJy_Cg2b9lAVizIuL3jfN)"><g transform="matrix(1, 0, 0, 1, 1435.31, 705.15)" opacity="1"><path d="M3.4235,-0.1408 L10.2705,-0.4225 Q13.6941,-0.5633 13.68,2.4024 L13.6674,8.3339 Q13.6585,11.2996 10.13,11.2086 L3.0969,11.0264 Q-0.4236,10.9353 -0.2155,8.1073 L0.2005,2.4513 Q0.4086,-0.3767 3.69,-0.4053 L10.2714,-0.4625 Q13.559,-0.4911 13.70,2.6216 L13.9848,8.8469 Q14.1268,11.9595 10.79,12.2109 L4.1458,12.7137 Q0.8188,12.9651 0.56,9.9527 L0.0716,3.928 Q-0.1775,0.9156 3.42,-0.1408 " fill="none" stroke="#1d1d1d" stroke-width="3.5"/></g></g><g clip-path="url(#ekM7oiSMsGGoUirn7igQt)"><g transform="matrix(1, 0, 0, 1, 1473.85, 658.15)" opacity="1"><path d="M19.9449,-0.1332 L32.4748,-0.3995 Q38.7397,-0.5327 41.21,6.0161 L49.801,28.7654 Q52.2735,35.3142 45.27,35.5477 L6.414,36.8445 Q-0.5821,37.0779 2.03,30.5873 L11.9614,6.0211 Q14.5829,-0.4695 20.52,-0.1083 L32.4034,0.6142 Q38.3436,0.9754 41.00,7.4509 L50.4584,30.4848 Q53.1168,36.9603 46.12,36.7481 L6.4757,35.5453 Q-0.5211,35.3331 1.92,28.7759 L10.1883,6.6738 Q12.6386,0.1167 19.94,-0.1332 " fill="none" stroke="#1d1d1d" stroke-width="3.5"/></g></g><g clip-path="url(#XbINA5rzdB2aa42IKx5WM)"><g transform="matrix(1, 0, 0, 1, 1493.35, 705.15)" opacity="1"><path d="M2.9768,-0.2116 L8.9304,-0.6348 Q11.9072,-0.8463 12.45,2.4414 L13.541,9.0168 Q14.0856,12.3045 10.79,12.1898 L4.2103,11.9603 Q0.9185,11.8456 0.86,8.9763 L0.7462,3.2376 Q0.6888,0.3683 4.05,0.2214 L10.7854,-0.0723 Q14.1509,-0.2192 14.00,3.0231 L13.6983,9.5078 Q13.5475,12.7501 10.16,12.8451 L3.4128,13.0349 Q0.0346,13.1298 -0.0843,9.8373 L-0.322,3.2521 Q-0.4409,-0.0404 2.97,-0.2116 " fill="none" stroke="#1d1d1d" stroke-width="3.5"/></g></g><g clip-path="url(#sZhUujGuBjN-orWfs9cRp)"><g transform="matrix(1, 0, 0, 1, 1531.88, 658.15)" opacity="1"><path d="M19.7614,0.2084 L31.9243,0.6252 Q38.0057,0.8337 40.51,7.3673 L49.4018,30.4719 Q51.9141,37.0056 44.91,37.0108 L6.1196,37.0399 Q-0.8804,37.0451 1.69,30.5351 L11.2789,6.2803 Q13.8519,-0.2297 20.09,-0.1203 L32.5704,0.0984 Q38.8099,0.2078 41.12,6.8126 L49.3841,30.331 Q51.7026,36.9358 44.70,36.7875 L6.1239,35.9698 Q-0.8745,35.8214 1.64,29.2923 L10.6414,6.032 Q13.1654,-0.4971 19.76,0.2084 " fill="none" stroke="#1d1d1d" stroke-width="3.5"/></g></g><g clip-path="url(#Cd3knKckyfc3VIrlN8xw-)"><g transform="matrix(1, 0, 0, 1, 1551.38, 705.15)" opacity="1"><path d="M3.5021,-0.2893 L10.5063,-0.8679 Q14.0084,-1.1572 13.64,2.3414 L12.9119,9.3386 Q12.5464,12.8372 9.48,12.567 L3.3662,12.0267 Q0.3061,11.7565 0.20,9.0748 L-0.01,3.7115 Q-0.1154,1.0298 3.10,0.9358 L9.5348,0.7476 Q12.7515,0.6535 12.87,3.2025 L13.1093,8.3005 Q13.2286,10.8495 9.66,11.3785 L2.5318,12.4367 Q-1.0338,12.9657 -0.8187,9.884 L-0.3886,3.7205 Q-0.1735,0.6387 3.50,-0.2893 " fill="none" stroke="#1d1d1d" stroke-width="3.5"/></g></g><g clip-path="url(#zla10_MWmUxZ_CRvsEAwX)"><g transform="matrix(1, 0, 0, 1, 1589.91, 658.15)" opacity="1"><path d="M19.9209,0.1811 L32.4026,0.5432 Q38.6435,0.7243 41.01,7.3114 L48.5513,28.2791 Q50.9199,34.8662 43.92,34.9117 L7.7543,35.1467 Q0.7544,35.1922 3.05,28.5799 L11.0675,5.5084 Q13.3648,-1.1039 19.59,-1.0383 L32.0683,-0.9071 Q38.3028,-0.8415 40.84,5.6803 L49.8677,28.8171 Q52.4107,35.3388 45.41,35.5309 L6.0275,36.6121 Q-0.9699,36.8042 1.59,30.291 L11.0189,6.3595 Q13.5837,-0.1537 19.92,0.1811 " fill="none" stroke="#1d1d1d" stroke-width="3.5"/></g></g><g clip-path="url(#TyQbpbUW6XrIfxsw_MmoK)"><g transform="matrix(1, 0, 0, 1, 1609.41, 705.15)" opacity="1"><path d="M3.4477,-0.031 L10.3431,-0.093 Q13.7908,-0.124 13.55,2.751 L13.0951,8.5011 Q12.8633,11.3762 9.58,11.6591 L3.0178,12.2249 Q-0.264,12.5077 -0.0556,9.3798 L0.3613,3.1239 Q0.5697,-0.0041 3.88,-0.1172 L10.5298,-0.3435 Q13.8498,-0.4566 13.62,2.8771 L13.1833,9.5444 Q12.9611,12.8781 9.62,12.8682 L2.9659,12.8483 Q-0.3659,12.8384 -0.1277,9.3988 L0.3487,2.5196 Q0.5869,-0.92 3.44,-0.031 " fill="none" stroke="#1d1d1d" stroke-width="3.5"/></g></g><g clip-path="url(#Jd6TJhPvV6_xW-ZppuYie)"><g transform="matrix(1, 0, 0, 1, 1647.94, 658.15)" opacity="1"><path d="M19.6558,0.2087 L31.6074,0.626 Q37.5831,0.8347 40.25,7.3046 L49.8661,30.5741 Q52.5383,37.044 45.53,36.9423 L6.7423,36.3786 Q-0.257,36.2769 2.44,29.8182 L11.7337,7.5844 Q14.4328,1.1257 20.35,0.7859 L32.1879,0.1062 Q38.1063,-0.2337 40.55,6.3245 L49.5819,30.5155 Q52.0294,37.0737 45.03,36.9164 L6.8712,36.0588 Q-0.127,35.9015 2.47,29.4042 L11.5222,6.8461 Q14.1271,0.3489 19.65,0.2087 " fill="none" stroke="#1d1d1d" stroke-width="3.5"/></g></g><g clip-path="url(#97BaDF0_bd7_p85kjMiKX)"><g transform="matrix(1, 0, 0, 1, 1667.44, 705.15)" opacity="1"><path d="M3.1532,0.0828 L9.4597,0.2485 Q12.6129,0.3314 12.52,3.4269 L12.3507,9.6181 Q12.2634,12.7137 8.98,12.7526 L2.4211,12.8304 Q-0.8596,12.8693 -0.931,9.4662 L-1.0737,2.6601 Q-1.1451,-0.7429 2.12,-0.4821 L8.6601,0.0396 Q11.9284,0.3005 12.37,3.2672 L13.282,9.2006 Q13.7332,12.1672 10.23,12.4145 L3.2355,12.909 Q-0.2638,13.1563 -0.3842,10.1404 L-0.625,4.1086 Q-0.7454,1.0927 3.15,0.0828 " fill="none" stroke="#1d1d1d" stroke-width="3.5"/></g></g><g clip-path="url(#WeB3g1rwHgFJttN1-N6hM)"><g transform="matrix(1, 0, 0, 1, 1705.97, 658.15)" opacity="1"><path d="M19.9274,0.1724 L32.4221,0.5171 Q38.6694,0.6894 41.02,7.2815 L49.3099,30.4777 Q51.6647,37.0698 44.67,36.7834 L6.7743,35.2321 Q-0.2198,34.9457 2.42,28.4648 L11.0122,7.4264 Q13.6575,0.9455 19.56,0.5505 L31.3919,-0.2394 Q37.3033,-0.6344 40.12,5.7737 L50.3473,29.0366 Q53.1644,35.4447 46.16,35.6576 L6.9397,36.8514 Q-0.0571,37.0643 2.43,30.5226 L11.2474,7.3792 Q13.7385,0.8374 19.92,0.1724 " fill="none" stroke="#1d1d1d" stroke-width="3.5"/></g></g><g clip-path="url(#KkhxrSeF8_VPtl1fNk1GK)"><g transform="matrix(1, 0, 0, 1, 1725.47, 705.15)" opacity="1"><path d="M3.0917,0.2563 L9.2751,0.7688 Q12.3668,1.0251 12.49,3.4975 L12.7417,8.4424 Q12.8667,10.9148 9.91,11.0509 L3.9988,11.3232 Q1.0429,11.4593 0.65,8.7262 L-0.1093,3.2599 Q-0.4933,0.5268 2.93,0.228 L9.7921,-0.3694 Q13.2206,-0.6681 13.44,2.5646 L13.9063,9.03 Q14.1349,12.2627 10.37,12.044 L2.8561,11.6066 Q-0.9035,11.3878 -0.7691,8.7531 L-0.5002,3.4836 Q-0.3658,0.8488 3.09,0.2563 " fill="none" stroke="#1d1d1d" stroke-width="3.5"/></g></g><g clip-path="url(#FF7RZVwBKoG4IGYM9eNgg)"><g transform="matrix(1, 0, 0, 1, 1764.00, 658.15)" opacity="1"><path d="M19.985,-0.245 L32.5949,-0.7351 Q38.8999,-0.9801 41.12,5.6558 L49.1222,29.4665 Q51.3502,36.1025 44.35,36.0666 L6.447,35.8721 Q-0.5529,35.8362 2.04,29.3352 L11.0472,6.7826 Q13.6428,0.2816 20.05,0.0511 L32.8872,-0.41 Q39.302,-0.6405 41.61,5.9646 L49.947,29.6941 Q52.2649,36.2992 45.26,36.2471 L6.0239,35.9555 Q-0.9759,35.9035 1.53,29.3685 L10.1855,6.8311 Q12.6944,0.2962 19.98,-0.245 " fill="none" stroke="#1d1d1d" stroke-width="3.5"/></g></g><g clip-path="url(#00yVdBz4Lnt-GMR0XJUVF)"><g transform="matrix(1, 0, 0, 1, 1783.50, 705.15)" opacity="1"><path d="M3.1879,-0.1299 L9.5637,-0.3898 Q12.7516,-0.5197 12.99,2.7598 L13.4929,9.3188 Q13.7399,12.5983 10.10,12.2673 L2.8307,11.6053 Q-0.8058,11.2743 -0.8545,8.4529 L-0.9519,2.8101 Q-1.0006,-0.0113 2.27,0.1234 L8.8167,0.3929 Q12.0891,0.5276 12.55,3.1677 L13.497,8.4479 Q13.9663,11.088 10.75,11.5339 L4.3286,12.4258 Q1.116,12.8717 0.91,9.7883 L0.5143,3.6215 Q0.3138,0.538 3.18,-0.1299 " fill="none" stroke="#1d1d1d" stroke-width="3.5"/></g></g><g clip-path="url(#YNAaGN-b9M1zk5d--PNPH)"><g transform="matrix(-1, 0, 0, -1, 1817.00, 562.15)" opacity="1"><path d="M19.8523,-0.2059 L32.197,-0.6178 Q38.3693,-0.8237 40.79,5.7412 L49.2981,28.7092 Q51.7275,35.2742 44.73,35.4721 L6.9359,36.5412 Q-0.0613,36.7392 2.59,30.2609 L12.1873,6.8173 Q14.8392,0.3391 20.67,0.535 L32.3352,0.9268 Q38.1673,1.1226 40.92,7.5569 L50.3188,29.4825 Q53.0757,35.9167 46.07,35.8707 L6.915,35.6133 Q-0.0849,35.5673 2.21,28.956 L10.2888,5.7503 Q12.589,-0.861 19.85,-0.2059 " fill="none" stroke="#1d1d1d" stroke-width="3.5"/></g></g><g clip-path="url(#qfxfu56Xnk17nPtGc7uDL)"><g transform="matrix(-1, 0, 0, -1, 1797.50, 515.15)" opacity="1"><path d="M2.9947,-0.0149 L8.9842,-0.0448 Q11.9789,-0.0597 12.50,2.7829 L13.5593,8.4683 Q14.086,11.311 10.53,11.2546 L3.424,11.1417 Q-0.13,11.0853 -0.1899,8.5284 L-0.3099,3.4148 Q-0.3699,0.8579 3.12,0.5123 L10.1158,-0.179 Q13.6111,-0.5247 13.63,2.6562 L13.6745,9.0179 Q13.6957,12.1988 10.27,12.304 L3.4383,12.5146 Q0.0191,12.6198 -0.2104,9.4561 L-0.6694,3.1286 Q-0.8989,-0.0352 2.99,-0.0149 " fill="none" stroke="#1d1d1d" stroke-width="3.5"/></g></g><g clip-path="url(#pPsce-hh9tqtDTv8dg8Ac)"><g transform="matrix(-1, 0, 0, -1, 1758.97, 562.15)" opacity="1"><path d="M19.6827,0.1622 L31.6881,0.4865 Q37.6908,0.6486 40.11,7.2172 L48.4561,29.8754 Q50.8755,36.444 43.87,36.4608 L7.5095,36.5483 Q0.5096,36.5651 2.79,29.9493 L10.7381,6.9782 Q13.0253,0.3624 19.53,0.5181 L32.5558,0.8294 Q39.066,0.9851 41.34,7.6037 L48.6179,28.7242 Q50.897,35.3428 43.89,35.324 L7.8317,35.2269 Q0.8317,35.208 3.20,28.6221 L10.8601,7.3615 Q13.2319,0.7755 19.68,0.1622 " fill="none" stroke="#1d1d1d" stroke-width="3.5"/></g></g><g clip-path="url(#DPt3DpjrA82ev_deWISkv)"><g transform="matrix(-1, 0, 0, -1, 1739.47, 515.15)" opacity="1"><path d="M3.3659,-0.2453 L10.0977,-0.7358 Q13.4637,-0.981 13.08,2.0037 L12.3282,7.9732 Q11.9498,10.9579 9.13,11.3323 L3.4958,12.081 Q0.6778,12.4553 0.23,9.5707 L-0.6395,3.8014 Q-1.0785,0.9168 2.32,0.9174 L9.1232,0.9187 Q12.5238,0.9193 12.47,3.9757 L12.373,10.0884 Q12.3227,13.1447 9.08,12.988 L2.6019,12.6746 Q-0.6384,12.5179 -0.4663,9.2607 L-0.1223,2.7464 Q0.0497,-0.5108 3.36,-0.2453 " fill="none" stroke="#1d1d1d" stroke-width="3.5"/></g></g><g clip-path="url(#yWGJlqJa4d_R8PIhmosta)"><g transform="matrix(-1, 0, 0, -1, 1700.94, 562.15)" opacity="1"><path d="M19.6543,-0.064 L31.603,-0.1921 Q37.5773,-0.2561 40.33,6.1785 L50.3931,29.6674 Q53.149,36.1021 46.15,36.2232 L6.3931,36.9112 Q-0.6059,37.0323 1.75,30.4437 L10.2601,6.7526 Q12.6244,0.164 18.81,0.0678 L31.2042,-0.1246 Q37.3975,-0.2208 39.97,6.2888 L49.2234,29.687 Q51.7974,36.1966 44.79,36.1723 L6.5015,36.0392 Q-0.4985,36.0149 2.02,29.4854 L10.5796,7.3458 Q13.1027,0.8163 19.65,-0.064 " fill="none" stroke="#1d1d1d" stroke-width="3.5"/></g></g><g clip-path="url(#NwOUerilmJJJFTQGcJ7nT)"><g transform="matrix(-1, 0, 0, -1, 1681.44, 515.15)" opacity="1"><path d="M3.4926,0.164 L10.4778,0.492 Q13.9704,0.6561 13.96,3.5967 L13.9461,9.4781 Q13.938,12.4188 10.44,12.552 L3.4592,12.8183 Q-0.0338,12.9515 0.15,9.669 L0.5373,3.1038 Q0.7277,-0.1788 3.97,-0.1101 L10.467,0.0271 Q13.7135,0.0957 13.51,3.0761 L13.1031,9.0369 Q12.8996,12.0173 9.94,12.2868 L4.042,12.8257 Q1.0895,13.0952 1.00,10.0568 L0.8304,3.9801 Q0.744,0.9417 3.49,0.164 " fill="none" stroke="#1d1d1d" stroke-width="3.5"/></g></g><g clip-path="url(#YYfIkHUh_Do9X5TDoC_3N)"><g transform="matrix(-1, 0, 0, -1, 1642.91, 562.15)" opacity="1"><path d="M19.7528,-0.0059 L31.8985,-0.0176 Q37.9713,-0.0235 40.58,6.4687 L50.2946,30.5432 Q52.912,37.0355 45.91,36.8667 L7.6348,35.9434 Q0.6368,35.7746 3.06,29.2097 L11.137,7.4029 Q13.5666,0.8381 19.70,0.7318 L31.9941,0.5192 Q38.1366,0.4129 40.49,7.0022 L48.9123,30.4692 Q51.2747,37.0585 44.27,36.8447 L5.9639,35.6737 Q-1.0329,35.4599 1.77,29.0463 L11.1636,7.5698 Q13.9683,1.1562 19.75,-0.0059 " fill="none" stroke="#1d1d1d" stroke-width="3.5"/></g></g><g clip-path="url(#NY-9La2GxlGYXTBxaoInx)"><g transform="matrix(-1, 0, 0, -1, 1623.41, 515.15)" opacity="1"><path d="M2.9739,-0.1199 L8.9216,-0.3596 Q11.8955,-0.4795 12.21,2.7842 L12.851,9.3116 Q13.1695,12.5753 9.99,12.3471 L3.6416,11.8906 Q0.4657,11.6624 0.61,8.5863 L0.9194,2.4342 Q1.0707,-0.6418 4.16,-0.32 L10.3626,0.3235 Q13.4599,0.6452 13.31,3.4167 L13.0399,8.9597 Q12.8998,11.7311 9.90,12.0601 L3.9117,12.7181 Q0.9157,13.0471 0.43,10.0525 L-0.5191,4.0632 Q-0.9974,1.0686 2.97,-0.1199 " fill="none" stroke="#1d1d1d" stroke-width="3.5"/></g></g><g clip-path="url(#T24-pO0bFWFagZv-CS5_D)"><g transform="matrix(-1, 0, 0, -1, 1584.88, 562.15)" opacity="1"><path d="M19.7829,0.151 L31.9888,0.4531 Q38.0917,0.6042 40.69,7.1002 L49.8346,29.8548 Q52.4425,36.3508 45.44,36.418 L7.8331,36.7792 Q0.8334,36.8464 3.21,30.2634 L11.7768,6.5767 Q14.1568,-0.0063 20.27,-0.2175 L32.5164,-0.6399 Q38.6362,-0.8511 40.94,5.7575 L49.529,30.3368 Q51.8371,36.9453 44.83,36.9457 L6.5195,36.9479 Q-0.4805,36.9483 1.89,30.3649 L10.2146,7.3502 Q12.5935,0.7668 19.78,0.151 " fill="none" stroke="#1d1d1d" stroke-width="3.5"/></g></g><g clip-path="url(#fjOpM7p8GKg9w7XYV7JbG)"><g transform="matrix(-1, 0, 0, -1, 1565.38, 515.15)" opacity="1"><path d="M3.2925,-0.188 L9.8775,-0.564 Q13.17,-0.752 13.33,2.4475 L13.6695,8.8466 Q13.8359,12.0461 10.47,12.2871 L3.7398,12.7689 Q0.3745,13.0098 0.02,9.7289 L-0.6861,3.1671 Q-1.0397,-0.1138 2.74,0.062 L10.3082,0.4137 Q14.0908,0.5895 13.65,3.6623 L12.78,9.8079 Q12.343,12.8806 9.52,12.8527 L3.9003,12.7968 Q1.0861,12.7689 0.65,9.6805 L-0.2157,3.5038 Q-0.6496,0.4155 3.29,-0.188 " fill="none" stroke="#1d1d1d" stroke-width="3.5"/></g></g><g clip-path="url(#wip5Hk4_yMBc9bY_EG0e6)"><g transform="matrix(-1, 0, 0, -1, 1526.85, 562.15)" opacity="1"><path d="M19.6646,0.2382 L31.6337,0.7146 Q37.6182,0.9528 40.42,7.3649 L50.2495,29.7958 Q53.0575,36.2079 46.05,36.0434 L6.264,35.1079 Q-0.7341,34.9434 1.80,28.4213 L10.6731,5.6767 Q13.2152,-0.8454 19.28,-0.8984 L31.4294,-1.0044 Q37.5008,-1.0574 40.16,5.4148 L50.0272,29.3461 Q52.6938,35.8183 45.69,35.7914 L6.3609,35.6402 Q-0.6391,35.6133 2.12,29.1807 L11.9088,6.3766 Q14.6695,-0.056 19.66,0.2382 " fill="none" stroke="#1d1d1d" stroke-width="3.5"/></g></g><g clip-path="url(#PtCUSabyeCDpkqhhar7WX)"><g transform="matrix(-1, 0, 0, -1, 1507.35, 515.15)" opacity="1"><path d="M3.4129,-0.259 L10.2386,-0.7769 Q13.6514,-1.0359 13.68,2.239 L13.7605,8.7888 Q13.7969,12.0637 10.34,11.877 L3.4368,11.5037 Q-0.0165,11.317 -0.265,8.7784 L-0.7619,3.7011 Q-1.0104,1.1625 2.48,0.7317 L9.4706,-0.13 Q12.9643,-0.5609 13.26,2.7808 L13.8588,9.4641 Q14.1569,12.8058 10.64,12.8868 L3.6223,13.0489 Q0.1107,13.1299 0.35,10.0872 L0.8403,4.0017 Q1.0835,0.959 3.41,-0.259 " fill="none" stroke="#1d1d1d" stroke-width="3.5"/></g></g><g clip-path="url(#xZKaJx91laEge0Mzf7eNQ)"><g transform="matrix(-1, 0, 0, -1, 1468.81, 562.15)" opacity="1"><path d="M19.8171,0.1118 L32.0912,0.3353 Q38.2282,0.447 40.81,6.9534 L49.5272,28.9191 Q52.1092,35.4255 45.10,35.5183 L7.8333,36.0127 Q0.834,36.1055 3.06,29.4716 L11.0408,5.7976 Q13.2749,-0.8363 19.54,-0.8182 L32.0893,-0.7821 Q38.3608,-0.764 40.79,5.7991 L49.8057,30.0951 Q52.2398,36.6582 45.23,36.6587 L5.8909,36.6615 Q-1.1091,36.662 1.53,30.1792 L11.3469,6.0848 Q13.9878,-0.398 19.81,0.1118 " fill="none" stroke="#1d1d1d" stroke-width="3.5"/></g></g><g clip-path="url(#gH1zBBYS9zaSsUBUz07mH)"><g transform="matrix(-1, 0, 0, -1, 1449.31, 515.15)" opacity="1"><path d="M3.1744,-0.0588 L9.5231,-0.1764 Q12.6974,-0.2352 12.89,2.8393 L13.2842,8.9883 Q13.4798,12.0628 9.94,11.9143 L2.8664,11.6172 Q-0.6713,11.4687 -0.5563,8.4889 L-0.3263,2.5294 Q-0.2113,-0.4504 2.93,-0.4294 L9.2279,-0.3874 Q12.3743,-0.3663 12.34,2.6214 L12.2836,8.597 Q12.2534,11.5848 8.98,11.6991 L2.4579,11.9276 Q-0.8073,12.0419 -0.5926,9.2394 L-0.1632,3.6343 Q0.0515,0.8317 3.17,-0.0588 " fill="none" stroke="#1d1d1d" stroke-width="3.5"/></g></g><g clip-path="url(#jrUkbxVnnAk40TceFxDgl)"><g transform="matrix(-1, 0, 0, -1, 1410.78, 562.15)" opacity="1"><path d="M19.603,0.1296 L31.449,0.3889 Q37.372,0.5185 40.05,6.9836 L49.7539,30.3438 Q52.4378,36.8088 45.43,36.7777 L7.3585,36.6085 Q0.3585,36.5774 2.83,30.0296 L11.8761,6.1069 Q14.3511,-0.4409 20.54,-0.4996 L32.936,-0.617 Q39.1309,-0.6757 41.46,5.9234 L49.5692,28.8254 Q51.9041,35.4245 44.90,35.5142 L7.8117,35.9897 Q0.8123,36.0795 3.24,29.5167 L11.5531,7.132 Q13.9881,0.5692 19.60,0.1296 " fill="none" stroke="#1d1d1d" stroke-width="3.5"/></g></g><g clip-path="url(#mqIjEKjLH4fffhB0_8gGz)"><g transform="matrix(-1, 0, 0, -1, 1391.28, 515.15)" opacity="1"><path d="M3.299,0.224 L9.8969,0.672 Q13.1959,0.896 13.42,3.755 L13.8706,9.4728 Q14.0955,12.3318 10.43,12.1524 L3.1284,11.7936 Q-0.5273,11.6142 -0.292,8.8446 L0.1787,3.3054 Q0.414,0.5358 3.43,0.5708 L9.4819,0.6406 Q12.5046,0.6756 12.76,3.695 L13.2761,9.7339 Q13.5332,12.7534 9.99,12.5778 L2.9185,12.2264 Q-0.6198,12.0508 -0.3306,9.1472 L0.2477,3.34 Q0.5368,0.4364 3.29,0.224 " fill="none" stroke="#1d1d1d" stroke-width="3.5"/></g></g><g clip-path="url(#QZOE_ldlSCdYPUIeY731N)"><g transform="matrix(1, 0, 0, 1, 846.14, 175.00)" opacity="1"><g><path d="M0, 0L483, 0,483, 282,0, 282Z" fill="#ddedfa"/><path d="M0, 0L483, 0,483, 282,0, 282Z" stroke-width="2" stroke="#4dabf7" fill="none"/></g></g></g><g clip-path="url(#RIH9UM5fkQoWXVlBgrE3G)"><g transform="matrix(0, -1, 1, 0, 1436.36, 245.99)" opacity="1"><path d="M19.65,-0.055 L31.59,-0.1651 Q37.5601,-0.2201 40.17,6.273 L49.4925,29.4045 Q52.1078,35.8975 45.10,35.7803 L6.1558,35.1281 Q-0.8432,35.0109 1.83,28.5424 L11.0769,6.1906 Q13.7523,-0.278 19.67,-0.2479 L31.5234,-0.1876 Q37.4471,-0.1575 39.84,6.4182 L48.66,30.5662 Q51.0599,37.1419 44.06,37.0265 L7.1338,36.4175 Q0.1347,36.3021 2.79,29.826 L12.0342,7.3017 Q14.6915,0.8257 19.65,-0.055 " fill="none" stroke="#1d1d1d" stroke-width="3.5"/></g></g><g clip-path="url(#Nq0jSSCDbZ4KkcHX2c33x)"><g transform="matrix(0, -1, 1, 0, 1483.36, 226.49)" opacity="1"><path d="M3.4887,-0.0631 L10.4662,-0.1894 Q13.9549,-0.2525 13.51,2.7316 L12.627,8.6997 Q12.1844,11.6838 8.91,11.8229 L2.368,12.1013 Q-0.9042,12.2405 -0.8986,9.2889 L-0.8874,3.3858 Q-0.8818,0.4342 2.49,0.242 L9.255,-0.1425 Q12.634,-0.3348 12.90,2.8972 L13.4324,9.3612 Q13.6986,12.5932 10.36,12.3681 L3.7067,11.9177 Q0.3761,11.6926 0.10,8.9842 L-0.4519,3.5675 Q-0.7279,0.8591 3.48,-0.0631 " fill="none" stroke="#1d1d1d" stroke-width="3.5"/></g></g><g clip-path="url(#gKI3jsoMZy82I7fZdrQua)"><g transform="matrix(0, -1, 1, 0, 1436.36, 302.99)" opacity="1"><path d="M19.8575,-0.0535 L32.2126,-0.1605 Q38.3902,-0.2139 40.72,6.3843 L49.2283,30.3829 Q51.5655,36.9812 44.56,36.8975 L6.9225,36.4474 Q-0.077,36.3637 2.52,29.8643 L11.837,6.5775 Q14.4366,0.0781 20.16,-0.2082 L31.6074,-0.7809 Q37.3311,-1.0673 39.78,5.4883 L49.0547,30.2447 Q51.5092,36.8003 44.51,36.5493 L7.5352,35.2229 Q0.5397,34.9719 3.04,28.4347 L11.2452,7.0114 Q13.7482,0.4742 19.85,-0.0535 " fill="none" stroke="#1d1d1d" stroke-width="3.5"/></g></g><g clip-path="url(#iW3-sofVbDnsLUHoUSiiO)"><g transform="matrix(0, -1, 1, 0, 1483.36, 283.49)" opacity="1"><path d="M3.2377,0.1657 L9.713,0.4971 Q12.9507,0.6628 13.17,3.604 L13.6323,9.4863 Q13.8595,12.4274 10.61,12.2784 L4.1359,11.9803 Q0.8947,11.8313 0.53,8.751 L-0.1931,2.5906 Q-0.5557,-0.4896 2.81,-0.4033 L9.5621,-0.2306 Q12.9347,-0.1443 13.22,2.8645 L13.8178,8.8819 Q14.1121,11.8907 10.38,12.0376 L2.9244,12.3316 Q-0.8049,12.4786 -0.3527,9.1095 L0.5515,2.3712 Q1.0037,-0.9979 3.23,0.1657 " fill="none" stroke="#1d1d1d" stroke-width="3.5"/></g></g><g clip-path="url(#CG0ov9Jg7lXePjhvuNBzS)"><g transform="matrix(0, 1, -1, 0, 1429.51, 251.92)" opacity="1"><path d="M19.9698,0.1848 L32.5493,0.5543 Q38.839,0.7391 41.41,7.248 L50.4557,30.0969 Q53.0313,36.6058 46.03,36.5539 L6.9168,36.2637 Q-0.083,36.2117 2.46,29.6905 L11.7202,5.959 Q14.2645,-0.5622 20.34,-0.5277 L32.5023,-0.4586 Q38.5816,-0.4241 40.87,6.1897 L48.775,28.9791 Q51.0678,35.593 44.06,35.736 L7.7817,36.4776 Q0.7831,36.6207 3.17,30.0415 L11.3747,7.4703 Q13.7652,0.8911 19.96,0.1848 " fill="none" stroke="#1d1d1d" stroke-width="3.5"/></g></g><g clip-path="url(#DH3rRq8dm5oXKTKeC64R1)"><g transform="matrix(0, 1, -1, 0, 1382.51, 271.42)" opacity="1"><path d="M3.0336,-0.1808 L9.1009,-0.5425 Q12.1345,-0.7233 12.47,2.42 L13.1599,8.7068 Q13.5017,11.8502 10.17,11.7255 L3.5222,11.4762 Q0.1957,11.3515 0.04,8.3675 L-0.2491,2.3994 Q-0.3974,-0.5846 3.18,-0.3672 L10.3638,0.0676 Q13.9508,0.285 13.69,2.9919 L13.1918,8.4056 Q12.9388,11.1125 9.94,11.5185 L3.9438,12.3307 Q0.9455,12.7368 0.47,9.531 L-0.4783,3.1195 Q-0.9529,-0.0862 3.03,-0.1808 " fill="none" stroke="#1d1d1d" stroke-width="3.5"/></g></g><g clip-path="url(#ejTrHFymZ5WiI1HfzJEGE)"><g transform="matrix(0, 1, -1, 0, 1429.51, 194.92)" opacity="1"><path d="M19.6185,0.0757 L31.4956,0.2272 Q37.4342,0.3029 39.91,6.8477 L48.7882,30.2291 Q51.2713,36.7739 44.27,36.7579 L6.273,36.6714 Q-0.7269,36.6554 1.63,30.0655 L10.4225,5.5316 Q12.7832,-1.0583 19.04,-0.9223 L31.559,-0.6504 Q37.8176,-0.5144 40.16,6.0799 L48.5348,29.5774 Q50.8834,36.1717 43.88,36.0178 L6.5705,35.1973 Q-0.4278,35.0434 2.18,28.5478 L10.803,7.0819 Q13.412,0.5863 19.61,0.0757 " fill="none" stroke="#1d1d1d" stroke-width="3.5"/></g></g><g clip-path="url(#jWCQrjC4cQbQWz3PL-L3c)"><g transform="matrix(0, 1, -1, 0, 1382.51, 214.42)" opacity="1"><path d="M3.0749,0.1697 L9.2247,0.509 Q12.2996,0.6787 12.40,3.4238 L12.6156,8.914 Q12.721,11.659 9.62,11.6386 L3.4255,11.5977 Q0.327,11.5773 0.32,8.8423 L0.321,3.3725 Q0.319,0.6375 3.26,0.3163 L9.1581,-0.3263 Q12.1045,-0.6476 12.57,2.3599 L13.5174,8.3749 Q13.9884,11.3824 10.57,11.5484 L3.7445,11.8804 Q0.3299,12.0464 0.30,9.1819 L0.2403,3.4528 Q0.2104,0.5883 3.07,0.1697 " fill="none" stroke="#1d1d1d" stroke-width="3.5"/></g></g><g clip-path="url(#OqdVsEuql2XVmDOWUxcif)"><g transform="matrix(1, 0, 0, 1, 946.99, 348.71)" opacity="1"><path d="M20.0815,0.1877 L32.8845,0.5632 Q39.2861,0.7509 41.88,7.2496 L50.502,28.7719 Q53.1032,35.2707 46.10,35.4997 L7.4002,36.7667 Q0.404,36.9957 2.92,30.4657 L12.0016,6.9651 Q14.5234,0.4351 20.22,0.3588 L31.6173,0.206 Q37.3152,0.1297 40.03,6.5814 L49.5455,29.184 Q52.2613,35.6357 45.26,35.5328 L7.8139,34.9825 Q0.8147,34.8796 3.17,28.2912 L10.834,6.9651 Q13.1987,0.3766 20.08,0.1877 " fill="none" stroke="#1d1d1d" stroke-width="3.5"/></g></g><g clip-path="url(#jfEG6iIi_iZfv9hdIr5aU)"><g transform="matrix(1, 0, 0, 1, 966.49, 395.71)" opacity="1"><path d="M3.145,0.2788 L9.4349,0.8363 Q12.5798,1.1151 12.82,4.0652 L13.3241,9.9653 Q13.5722,12.9154 9.89,12.8387 L2.5519,12.6853 Q-1.1216,12.6086 -0.6723,9.6669 L0.2262,3.7837 Q0.6754,0.842 3.92,0.7284 L10.4323,0.5012 Q13.6846,0.3876 13.33,3.288 L12.6369,9.0888 Q12.2877,11.9892 9.46,12.2496 L3.8174,12.7702 Q0.9939,13.0306 0.78,10.0565 L0.352,4.1085 Q0.138,1.1345 3.14,0.2788 " fill="none" stroke="#1d1d1d" stroke-width="3.5"/></g></g><g clip-path="url(#xWqaX2-Df0ms0McDEIo9Z)"><g transform="matrix(0.7071, -0.7071, 0.70, 0.70, 978.26, 356.26)" opacity="1"><path d="M20.0753,-0.1937 L32.8658,-0.581 Q39.2611,-0.7747 41.54,5.8437 L49.3145,28.4095 Q51.5944,35.0279 44.59,35.064 L7.0874,35.2577 Q0.0875,35.2938 2.41,28.6909 L10.4292,5.9124 Q12.7533,-0.6906 19.41,-0.5295 L32.7493,-0.2074 Q39.4147,-0.0463 41.75,6.5516 L49.5553,28.5688 Q51.8935,35.1668 44.89,35.1657 L7.1195,35.16 Q0.1195,35.1589 2.55,28.5954 L10.8346,6.2555 Q13.2678,-0.308 20.07,-0.1937 " fill="none" stroke="#1d1d1d" stroke-width="3.5"/></g></g><g clip-path="url(#WbvmjEsTK5OQba0Lg1Pvm)"><g transform="matrix(0.7071, -0.7071, 0.70, 0.70, 1025.28, 375.70)" opacity="1"><path d="M3.4907,-0.1699 L10.4721,-0.5098 Q13.9628,-0.6797 13.68,2.2355 L13.1391,8.0659 Q12.8646,10.9811 9.64,11.3282 L3.1941,12.0226 Q-0.0294,12.3698 -0.154,9.2687 L-0.4033,3.0665 Q-0.528,-0.0346 2.97,-0.2977 L9.9908,-0.8238 Q13.497,-1.0869 13.28,1.9237 L12.8508,7.9448 Q12.6354,10.9554 9.19,11.25 L2.3289,11.8393 Q-1.1066,12.1339 -0.7509,8.9307 L-0.0394,2.5243 Q0.3164,-0.6788 3.49,-0.1699 " fill="none" stroke="#1d1d1d" stroke-width="3.5"/></g></g><g clip-path="url(#FMDTYpa5VnbV8I-G4IcCr)"><g transform="matrix(0, -1, 1, 0, 1009.33, 340.22)" opacity="1"><path d="M19.6677,0.0293 L31.6432,0.0879 Q37.6309,0.1173 40.32,6.5791 L49.6196,28.8987 Q52.3112,35.3605 45.31,35.3736 L7.313,35.4445 Q0.3131,35.4576 2.68,28.8712 L10.864,6.1424 Q13.2346,-0.444 19.59,-0.3165 L32.3282,-0.0614 Q38.6928,0.0661 40.99,6.6778 L49.1232,30.0615 Q51.4223,36.6731 44.42,36.6651 L7.6968,36.6228 Q0.6968,36.6148 3.19,30.0763 L12.2688,6.3467 Q14.7685,-0.1918 19.66,0.0293 " fill="none" stroke="#1d1d1d" stroke-width="3.5"/></g></g><g clip-path="url(#5sUerl4B-QrudalHfojip)"><g transform="matrix(0, -1, 1, 0, 1056.33, 320.72)" opacity="1"><path d="M3.0446,0.047 L9.1337,0.1409 Q12.1782,0.1879 12.27,3.2765 L12.4545,9.4539 Q12.5466,12.5426 9.50,12.3026 L3.408,11.8226 Q0.3618,11.5827 0.32,8.7244 L0.2443,3.0079 Q0.2051,0.1497 3.18,-0.0279 L9.1488,-0.383 Q12.13,-0.5606 12.24,2.3872 L12.48,8.2829 Q12.5966,11.2308 9.67,11.6016 L3.8199,12.3433 Q0.8943,12.7141 0.93,9.549 L1.0102,3.2188 Q1.0488,0.0537 3.04,0.047 " fill="none" stroke="#1d1d1d" stroke-width="3.5"/></g></g><g clip-path="url(#iBjU0oiq6_Ks2aC3zkOhV)"><g transform="matrix(-0.7071, -0.7071, 0.70, -0.7071, 1021.00, 310.74)" opacity="1"><path d="M19.8299,-0.26 L32.1296,-0.7801 Q38.2794,-1.0401 40.57,5.5732 L48.7513,29.1461 Q51.0456,35.7595 44.04,35.7597 L8.144,35.7609 Q1.144,35.7611 3.55,29.1877 L11.7777,6.7122 Q14.1839,0.1388 20.44,-0.0124 L32.9569,-0.3148 Q39.2145,-0.466 41.36,6.197 L49.1645,30.4268 Q51.3106,37.0897 44.31,36.9347 L7.4995,36.1194 Q0.5012,35.9643 2.69,29.3173 L10.5124,5.6423 Q12.707,-1.0048 19.82,-0.26 " fill="none" stroke="#1d1d1d" stroke-width="3.5"/></g></g><g clip-path="url(#1ANgENB-6p7exok28ILgN)"><g transform="matrix(-0.7071, -0.7071, 0.70, -0.7071, 1040.45, 263.72)" opacity="1"><path d="M3.1605,-0.1277 L9.4815,-0.3832 Q12.642,-0.5109 12.45,2.4175 L12.08,8.2743 Q11.8927,11.2027 8.74,11.3352 L2.4479,11.6 Q-0.7004,11.7324 -0.2665,8.7379 L0.6013,2.7489 Q1.0351,-0.2456 4.27,-0.3824 L10.753,-0.6561 Q13.9923,-0.7929 13.91,2.2608 L13.7463,8.3682 Q13.6643,11.422 10.43,11.514 L3.9641,11.698 Q0.7307,11.79 0.38,8.7393 L-0.3208,2.6379 Q-0.6713,-0.4128 3.16,-0.1277 " fill="none" stroke="#1d1d1d" stroke-width="3.5"/></g></g><g clip-path="url(#LZvbXXPEp8SjdXuudrFyU)"><g transform="matrix(-1, 0, 0, -1, 1004.23, 283.29)" opacity="1"><path d="M19.6519,0.0088 L31.5958,0.0263 Q37.5677,0.0351 40.22,6.5096 L49.5654,29.2255 Q52.2265,35.6999 45.22,35.776 L6.5507,36.1963 Q-0.4489,36.2724 1.95,29.6967 L10.7861,5.4901 Q13.1861,-1.0856 19.29,-0.9602 L31.5028,-0.7094 Q37.6083,-0.584 40.24,5.9023 L49.4891,28.6955 Q52.1211,35.1819 45.12,35.1681 L7.5967,35.0943 Q0.5967,35.0805 2.93,28.4813 L11.0113,5.6414 Q13.3458,-0.9578 19.65,0.0088 " fill="none" stroke="#1d1d1d" stroke-width="3.5"/></g></g><g clip-path="url(#LxjnMcscVgjTDs2h9_P-z)"><g transform="matrix(-1, 0, 0, -1, 984.73, 236.29)" opacity="1"><path d="M2.991,-0.1433 L8.9729,-0.4298 Q11.9639,-0.573 12.38,2.4408 L13.2395,8.4684 Q13.6647,11.4822 10.16,11.6638 L3.1707,12.0271 Q-0.3272,12.2088 -0.1315,8.885 L0.2599,2.2375 Q0.4556,-1.0862 3.34,-0.9497 L9.1184,-0.6766 Q12.006,-0.5401 12.31,2.625 L12.9477,8.9551 Q13.2616,12.1201 9.99,12.1987 L3.4757,12.3558 Q0.2137,12.4343 -0.0247,9.2161 L-0.5016,2.7797 Q-0.7401,-0.4385 2.99,-0.1433 " fill="none" stroke="#1d1d1d" stroke-width="3.5"/></g></g><g clip-path="url(#Wy17Sos_Qc0ecKtWHe4qA)"><g transform="matrix(-0.7071, 0.70, -0.7071, -0.7071, 970.91, 272.66)" opacity="1"><path d="M20.0079,0.0758 L32.6637,0.2273 Q38.9916,0.303 41.24,6.9291 L49.0386,29.7968 Q51.2957,36.4229 44.29,36.2857 L7.2649,35.5599 Q0.2662,35.4227 2.57,28.8149 L10.5927,5.8865 Q12.9029,-0.7213 19.27,-0.7977 L32.018,-0.9505 Q38.3897,-1.0269 40.77,5.5553 L49.0398,28.4041 Q51.4217,34.9864 44.42,34.9853 L6.1565,34.9794 Q-0.8435,34.9783 1.92,28.5473 L11.4691,6.3351 Q14.2335,-0.0959 20.00,0.0758 " fill="none" stroke="#1d1d1d" stroke-width="3.5"/></g></g><g clip-path="url(#7DaKf-GgMA676pYw23QT0)"><g transform="matrix(-0.7071, 0.70, -0.7071, -0.7071, 923.89, 253.22)" opacity="1"><path d="M3.2785,-0.0931 L9.8354,-0.2794 Q13.1139,-0.3725 12.98,2.5253 L12.7368,8.3207 Q12.6111,11.2184 9.66,11.1776 L3.7792,11.096 Q0.8353,11.0552 0.58,8.1314 L0.0868,2.2838 Q-0.1627,-0.6399 3.12,-0.6807 L9.7092,-0.7621 Q12.9999,-0.8029 13.22,2.133 L13.6718,8.0048 Q13.8958,10.9407 10.22,11.4211 L2.8924,12.3821 Q-0.7754,12.8626 -0.5666,9.4869 L-0.1492,2.7354 Q0.0595,-0.6403 3.27,-0.0931 " fill="none" stroke="#1d1d1d" stroke-width="3.5"/></g></g><g clip-path="url(#izMXqK7KiIX1RP2SZSRO6)"><g transform="matrix(0, 1, -1, 0, 940.51, 289.84)" opacity="1"><path d="M20.0084,-0.2509 L32.6652,-0.7528 Q38.9936,-1.0037 41.40,5.5695 L50.4015,30.1518 Q52.8083,36.725 45.80,36.6794 L7.6247,36.4306 Q0.6249,36.385 3.01,29.806 L11.3536,6.8608 Q13.7444,0.2817 19.96,0.1937 L32.4047,0.0176 Q38.6247,-0.0704 41.21,6.4322 L50.5367,29.8212 Q53.1281,36.3238 46.12,36.1749 L8.1098,35.3659 Q1.1114,35.217 3.36,28.5894 L10.977,6.1947 Q13.2299,-0.4328 20.00,-0.2509 " fill="none" stroke="#1d1d1d" stroke-width="3.5"/></g></g><g clip-path="url(#l2-OkGDFF8sLCpFLaMmo1)"><g transform="matrix(0, 1, -1, 0, 893.51, 309.34)" opacity="1"><path d="M3.0525,0.1697 L9.1574,0.5091 Q12.2099,0.6788 12.37,3.5068 L12.7195,9.1629 Q12.8893,11.991 9.77,11.7774 L3.5338,11.3504 Q0.4153,11.1368 0.05,8.5718 L-0.6755,3.4418 Q-1.0391,0.8768 2.59,0.6354 L9.8516,0.1527 Q13.4819,-0.0887 13.07,3.2118 L12.2507,9.8127 Q11.8403,13.1132 8.66,13.0919 L2.3075,13.0493 Q-0.8701,13.028 -0.705,9.4843 L-0.375,2.3968 Q-0.2099,-1.1469 3.05,0.1697 " fill="none" stroke="#1d1d1d" stroke-width="3.5"/></g></g><g clip-path="url(#_h0BOkuY4kZY6pn1HDx7Z)"><g transform="matrix(0.7071, 0.70, -0.7071, 0.70, 932.96, 321.11)" opacity="1"><path d="M19.9699,0.2783 L32.5496,0.835 Q38.8395,1.1134 41.46,7.6007 L49.9846,28.6089 Q52.6142,35.0963 45.61,35.2481 L7.8584,36.0675 Q0.8601,36.2193 3.31,29.663 L11.8942,6.7209 Q14.3466,0.1646 20.13,0.2659 L31.7068,0.4686 Q37.4935,0.5699 40.27,6.9924 L50.1125,29.6782 Q52.8967,36.1007 45.89,36.1626 L7.4766,36.5022 Q0.4769,36.5641 2.98,30.0287 L11.878,6.8501 Q14.3856,0.3147 19.96,0.2783 " fill="none" stroke="#1d1d1d" stroke-width="3.5"/></g></g><g clip-path="url(#JIQ7M_XsPCXceyxqP07wU)"><g transform="matrix(0.7071, 0.70, -0.7071, 0.70, 913.51, 368.14)" opacity="1"><path d="M3.4635,0.0485 L10.3905,0.1454 Q13.854,0.1939 13.48,3.2443 L12.7519,9.345 Q12.3845,12.3953 9.27,12.2176 L3.0505,11.8621 Q-0.0608,11.6844 -0.2373,9.0369 L-0.5903,3.7419 Q-0.7667,1.0944 2.72,0.6996 L9.715,-0.09 Q13.2089,-0.4849 13.38,2.3672 L13.7512,8.0713 Q13.9319,10.9234 10.44,11.3952 L3.4668,12.3389 Q-0.0216,12.8107 -0.1486,9.7891 L-0.4025,3.746 Q-0.5294,0.7245 3.46,0.0485 " fill="none" stroke="#1d1d1d" stroke-width="3.5"/></g></g><g clip-path="url(#3u8bMFOAraiY1JMnyXXVC)"><g transform="matrix(1, 0, 0, 1, 1162.14, 348.71)" opacity="1"><path d="M19.8951,0.2045 L32.3254,0.6136 Q38.5406,0.8182 41.09,7.3356 L50.2281,30.6428 Q52.7821,37.1602 45.78,36.9125 L6.8732,35.5344 Q-0.1225,35.2866 2.24,28.7003 L10.4324,5.9656 Q12.8033,-0.6206 19.06,-0.6569 L31.5783,-0.7293 Q37.8366,-0.7655 40.21,5.8168 L48.9709,30.0052 Q51.3527,36.5876 44.35,36.3497 L7.5483,35.0981 Q0.5524,34.8602 3.00,28.3053 L11.0687,6.7976 Q13.5251,0.2427 19.89,0.2045 " fill="none" stroke="#1d1d1d" stroke-width="3.5"/></g></g><g clip-path="url(#KBazUcWcQtHej49hkOsW_)"><g transform="matrix(1, 0, 0, 1, 1181.64, 395.71)" opacity="1"><path d="M3.1701,0.1603 L9.5102,0.481 Q12.6802,0.6413 12.71,3.702 L12.7742,9.8235 Q12.8055,12.8842 9.55,12.8384 L3.0618,12.7468 Q-0.186,12.701 -0.3737,9.4994 L-0.749,3.096 Q-0.9367,-0.1056 2.34,-0.288 L8.9066,-0.6527 Q12.1877,-0.8351 12.34,2.5732 L12.656,9.3898 Q12.8121,12.7982 9.59,12.8089 L3.1558,12.8304 Q-0.063,12.8412 -0.2592,9.907 L-0.6518,4.0386 Q-0.8481,1.1044 3.17,0.1603 " fill="none" stroke="#1d1d1d" stroke-width="3.5"/></g></g><g clip-path="url(#SDRSJwraHICTk4MxERcc8)"><g transform="matrix(0.7071, -0.7071, 0.70, 0.70, 1193.41, 356.26)" opacity="1"><path d="M20.0479,-0.1522 L32.7837,-0.4567 Q39.1516,-0.609 41.46,5.9993 L49.6242,29.3651 Q51.933,35.9733 44.93,36.1078 L7.7672,36.8218 Q0.7685,36.9562 2.92,30.2979 L10.7542,6.1808 Q12.9146,-0.4775 19.33,-0.2451 L32.1689,0.2198 Q38.5869,0.4522 40.99,7.0249 L48.8801,28.5464 Q51.2882,35.1192 44.28,35.2701 L6.5271,36.0843 Q-0.4712,36.2352 1.90,29.6511 L10.3027,6.3912 Q12.6797,-0.1928 20.04,-0.1522 " fill="none" stroke="#1d1d1d" stroke-width="3.5"/></g></g><g clip-path="url(#IqQGxHHoP9TA2rNuGtXLC)"><g transform="matrix(0.7071, -0.7071, 0.70, 0.70, 1240.43, 375.70)" opacity="1"><path d="M3.0238,0.19 L9.0715,0.57 Q12.0954,0.7599 12.16,3.318 L12.3013,8.4342 Q12.3699,10.9923 9.31,11.4601 L3.1984,12.3957 Q0.1412,12.8635 0.12,9.6927 L0.1065,3.3511 Q0.095,0.1802 3.28,0.3303 L9.6545,0.6305 Q12.841,0.7806 12.90,3.6905 L13.0246,9.5101 Q13.0857,12.42 9.65,12.1808 L2.8043,11.7025 Q-0.6229,11.4633 -0.731,8.7431 L-0.9473,3.3027 Q-1.0555,0.5825 3.02,0.19 " fill="none" stroke="#1d1d1d" stroke-width="3.5"/></g></g><g clip-path="url(#Mt7S39Lg8b08uUTN8BQPw)"><g transform="matrix(0, -1, 1, 0, 1224.49, 340.22)" opacity="1"><path d="M19.6817,0.0762 L31.6852,0.2286 Q37.6869,0.3048 40.23,6.8255 L49.0219,29.3384 Q51.5676,35.8591 44.56,35.783 L7.1487,35.3763 Q0.1491,35.3002 2.65,28.7623 L11.3787,5.9477 Q13.88,-0.5902 20.25,-0.4193 L32.9998,-0.0775 Q39.3731,0.0934 41.51,6.7582 L48.8872,29.7242 Q51.0272,36.3891 44.02,36.3341 L7.0089,36.0432 Q0.0092,35.9882 2.58,29.4804 L11.7534,6.347 Q14.3319,-0.1608 19.68,0.0762 " fill="none" stroke="#1d1d1d" stroke-width="3.5"/></g></g><g clip-path="url(#wM9GLJN3HRlvJrPcFlXq0)"><g transform="matrix(0, -1, 1, 0, 1271.49, 320.72)" opacity="1"><path d="M3.1139,0.1927 L9.3417,0.5781 Q12.4556,0.7708 12.41,3.6238 L12.3408,9.3296 Q12.3025,12.1825 9.21,12.2819 L3.0447,12.4808 Q-0.0412,12.5802 0.17,9.7099 L0.5957,3.9694 Q0.8081,1.0991 4.03,1.0012 L10.4922,0.8054 Q13.7202,0.7075 13.74,3.2885 L13.7815,8.4506 Q13.8019,11.0316 10.31,11.4468 L3.343,12.2773 Q-0.1433,12.6926 -0.2358,9.705 L-0.4207,3.7297 Q-0.5132,0.7421 3.11,0.1927 " fill="none" stroke="#1d1d1d" stroke-width="3.5"/></g></g><g clip-path="url(#rP1bhUdqr3tDkIm0t8f-c)"><g transform="matrix(-0.7071, -0.7071, 0.70, -0.7071, 1236.15, 310.74)" opacity="1"><path d="M19.7233,-0.1891 L31.8098,-0.5674 Q37.8531,-0.7566 40.36,5.7791 L49.5036,29.6169 Q52.0105,36.1526 45.01,36.0247 L6.8763,35.3277 Q-0.1226,35.1998 2.34,28.6476 L10.2227,7.6814 Q12.6859,1.1291 19.02,0.7881 L31.6991,0.1061 Q38.0368,-0.2349 40.50,6.3165 L49.6318,30.5729 Q52.0976,37.1242 45.10,36.913 L6.9706,35.7621 Q-0.0263,35.5509 2.61,29.0695 L11.956,6.1793 Q14.6002,-0.3021 19.72,-0.1891 " fill="none" stroke="#1d1d1d" stroke-width="3.5"/></g></g><g clip-path="url(#w5eaI-3WD7gwh7BQkx2Yl)"><g transform="matrix(-0.7071, -0.7071, 0.70, -0.7071, 1255.60, 263.72)" opacity="1"><path d="M3.0211,-0.0218 L9.0633,-0.0655 Q12.0844,-0.0873 12.49,3.0073 L13.3012,9.1967 Q13.7068,12.2913 10.17,12.5002 L3.1012,12.9181 Q-0.434,13.127 -0.0842,9.7155 L0.6155,2.8927 Q0.9653,-0.5188 4.03,-0.228 L10.1726,0.3537 Q13.2418,0.6445 13.40,3.5138 L13.745,9.2523 Q13.9128,12.1216 10.52,11.9677 L3.751,11.6597 Q0.3637,11.5057 0.00,8.7802 L-0.7033,3.3292 Q-1.0589,0.6037 3.02,-0.0218 " fill="none" stroke="#1d1d1d" stroke-width="3.5"/></g></g><g clip-path="url(#BFDjKywMkfGRTD24G6iKt)"><g transform="matrix(-1, 0, 0, -1, 1219.38, 283.29)" opacity="1"><path d="M19.8921,0.1716 L32.3164,0.5148 Q38.5285,0.6865 41.10,7.1968 L50.0062,29.7389 Q52.5783,36.2492 45.57,36.1451 L7.1057,35.5728 Q0.1065,35.4687 2.72,28.9763 L12.0949,5.7261 Q14.7118,-0.7664 20.52,-0.7433 L32.1602,-0.6973 Q37.9763,-0.6742 40.69,5.7764 L50.292,28.549 Q53.0105,34.9996 46.01,34.9953 L7.0395,34.9715 Q0.0395,34.9672 2.65,28.4725 L11.1105,7.432 Q13.7218,0.9373 19.89,0.1716 " fill="none" stroke="#1d1d1d" stroke-width="3.5"/></g></g><g clip-path="url(#nxqD10SO0fbUuz2hV4QIW)"><g transform="matrix(-1, 0, 0, -1, 1199.88, 236.29)" opacity="1"><path d="M3.2485,-0.1959 L9.7455,-0.5877 Q12.994,-0.7836 13.15,2.4545 L13.4731,8.9307 Q13.6328,12.1689 10.41,12.0093 L3.9653,11.6903 Q0.7428,11.5308 0.49,8.5036 L0.0114,2.4493 Q-0.2323,-0.5779 3.32,-0.698 L10.4429,-0.9382 Q14.0013,-1.0583 14.03,2.4882 L14.1008,9.5811 Q14.134,13.1276 10.46,13.0922 L3.1232,13.0213 Q-0.5471,12.9859 -0.2593,9.4938 L0.3163,2.5095 Q0.6041,-0.9826 3.24,-0.1959 " fill="none" stroke="#1d1d1d" stroke-width="3.5"/></g></g><g clip-path="url(#Z-Z3R2UHtqMPYmh9_V8im)"><g transform="matrix(-0.7071, 0.70, -0.7071, -0.7071, 1186.07, 272.66)" opacity="1"><path d="M19.8493,0.0044 L32.1879,0.0131 Q38.3572,0.0174 40.84,6.5619 L49.6713,29.8283 Q52.1551,36.3728 45.15,36.3126 L6.2834,35.9786 Q-0.7163,35.9184 1.79,29.3837 L10.7314,6.1074 Q13.2407,-0.4274 19.59,-0.4927 L32.3013,-0.6233 Q38.6549,-0.6886 41.03,5.8944 L49.7432,29.9792 Q52.1234,36.5621 45.12,36.452 L6.8999,35.8504 Q-0.0993,35.7403 2.26,29.152 L10.5461,6.0876 Q12.9114,-0.5007 19.84,0.0044 " fill="none" stroke="#1d1d1d" stroke-width="3.5"/></g></g><g clip-path="url(#JKSbXosf6-RLIr1PafLqW)"><g transform="matrix(-0.7071, 0.70, -0.7071, -0.7071, 1139.04, 253.22)" opacity="1"><path d="M3.3259,0.2528 L9.9778,0.7585 Q13.3037,1.0113 13.51,3.7495 L13.9256,9.226 Q14.1329,11.9642 10.76,11.71 L4.0193,11.2017 Q0.6482,10.9475 0.30,8.1296 L-0.3858,2.4936 Q-0.7304,-0.3244 2.99,-0.3601 L10.4385,-0.4314 Q14.1615,-0.4671 13.60,2.7013 L12.4902,9.0379 Q11.9332,12.2063 8.99,12.055 L3.1281,11.7525 Q0.1931,11.6013 0.00,8.6258 L-0.3735,2.6749 Q-0.5624,-0.3006 3.32,0.2528 " fill="none" stroke="#1d1d1d" stroke-width="3.5"/></g></g><g clip-path="url(#uUxkKo3bBn4eWnQ_cIEyi)"><g transform="matrix(0, 1, -1, 0, 1155.66, 289.84)" opacity="1"><path d="M19.6087,0.225 L31.4661,0.6751 Q37.3948,0.9001 39.95,7.4154 L48.8734,30.1197 Q51.4329,36.635 44.43,36.6624 L7.5069,36.807 Q0.5069,36.8344 2.69,30.1838 L10.6233,6.0261 Q12.8072,-0.6246 19.40,-0.2652 L32.6106,0.4535 Q39.2118,0.8129 41.56,7.4052 L49.8153,30.5082 Q52.1693,37.1005 45.17,36.8022 L6.1906,35.1393 Q-0.803,34.8409 1.86,28.3689 L11.283,5.5121 Q13.95,-0.9599 19.60,0.225 " fill="none" stroke="#1d1d1d" stroke-width="3.5"/></g></g><g clip-path="url(#jglFW1lDxrDpqcIwopKWW)"><g transform="matrix(0, 1, -1, 0, 1108.66, 309.34)" opacity="1"><path d="M3.5278,0.1601 L10.5834,0.4802 Q14.1112,0.6403 14.04,3.628 L13.9044,9.6032 Q13.8355,12.5908 10.63,12.5594 L4.2469,12.4965 Q1.0507,12.465 0.87,9.3197 L0.5155,3.029 Q0.3371,-0.1164 3.33,-0.2945 L9.3287,-0.6507 Q12.3258,-0.8289 12.71,2.6393 L13.5009,9.5755 Q13.8926,13.0437 10.13,12.9888 L2.6166,12.879 Q-1.142,12.8242 -0.6656,9.7245 L0.2873,3.5251 Q0.7638,0.4255 3.52,0.1601 " fill="none" stroke="#1d1d1d" stroke-width="3.5"/></g></g><g clip-path="url(#y0-OY8ezPc05ImvDIYfb1)"><g transform="matrix(0.7071, 0.70, -0.7071, 0.70, 1148.11, 321.11)" opacity="1"><path d="M20.1265,0.0367 L33.0195,0.1102 Q39.466,0.1469 41.97,6.6824 L50.6551,29.3118 Q53.1625,35.8473 46.16,35.7601 L7.625,35.2802 Q0.6256,35.193 2.83,28.5504 L10.4096,5.7603 Q12.6178,-0.8823 18.92,-0.806 L31.5285,-0.6533 Q37.8321,-0.577 40.33,5.9595 L49.3308,29.4306 Q51.8355,35.9671 44.83,35.8541 L6.8544,35.2408 Q-0.1447,35.1277 2.41,28.6138 L10.9393,6.9571 Q13.5022,0.4431 20.12,0.0367 " fill="none" stroke="#1d1d1d" stroke-width="3.5"/></g></g><g clip-path="url(#75-EPJVmoQmDPuFW1_S9W)"><g transform="matrix(0.7071, 0.70, -0.7071, 0.70, 1128.67, 368.14)" opacity="1"><path d="M3.0504,0.2004 L9.1513,0.6011 Q12.2017,0.8015 12.51,3.6962 L13.1318,9.4856 Q13.4418,12.3803 9.95,12.2324 L2.9946,11.9367 Q-0.4879,11.7888 -0.3122,8.8011 L0.0391,2.8257 Q0.2148,-0.162 3.37,-0.3732 L9.6826,-0.7956 Q12.8385,-1.0068 12.91,2.349 L13.0597,9.0606 Q13.1335,12.4164 9.56,12.5229 L2.4319,12.736 Q-1.1353,12.8425 -0.5859,9.7248 L0.5129,3.4892 Q1.0623,0.3715 3.05,0.2004 " fill="none" stroke="#1d1d1d" stroke-width="3.5"/></g></g><g clip-path="url(#wuH5Hau9fMkVRcmulPOKY)"><g transform="matrix(0, -1, 1, 0, 1528.17, 380.46)" opacity="1"><path d="M19.9193,-0.173 L32.398,-0.5189 Q38.6373,-0.6919 41.02,5.8881 L49.1799,28.3526 Q51.5683,34.9325 44.57,35.1237 L7.3775,36.1399 Q0.3801,36.3311 2.81,29.7668 L11.0387,7.5516 Q13.4698,0.9874 19.59,0.9776 L31.8406,0.9579 Q37.9642,0.9481 40.60,7.4307 L49.4003,29.0155 Q52.0416,35.498 45.04,35.5565 L6.4112,35.8791 Q-0.5885,35.9375 2.12,29.4856 L11.9862,6.0583 Q14.7015,-0.3936 19.91,-0.173 " fill="none" stroke="#1d1d1d" stroke-width="3.5"/></g></g><g clip-path="url(#ndBrHYVf4B7fpQapChikP)"><g transform="matrix(0, -1, 1, 0, 1575.17, 360.96)" opacity="1"><path d="M3.2687,0.0048 L9.8061,0.0145 Q13.0748,0.0193 13.19,2.9831 L13.428,8.9106 Q13.5457,11.8744 10.39,11.6364 L4.088,11.1604 Q0.9355,10.9224 0.88,8.204 L0.7712,2.7671 Q0.7164,0.0487 4.05,-0.0583 L10.7271,-0.2724 Q14.064,-0.3794 13.97,2.4488 L13.7877,8.1052 Q13.6956,10.9334 10.35,11.2344 L3.675,11.8366 Q0.3348,12.1376 0.14,8.8651 L-0.2452,2.32 Q-0.4385,-0.9525 3.26,0.0048 " fill="none" stroke="#1d1d1d" stroke-width="3.5"/></g></g><g clip-path="url(#JLfsQW7THimVGpp_gdZcz)"><g transform="matrix(0, -1, 1, 0, 1528.17, 437.46)" opacity="1"><path d="M19.5744,-0.1903 L31.3632,-0.571 Q37.2577,-0.7613 39.81,5.7541 L48.8925,28.8572 Q51.4519,35.3726 44.45,35.4158 L6.1319,35.6528 Q-0.8679,35.696 1.75,29.2068 L10.8531,6.7174 Q13.4778,0.2281 19.41,0.3959 L31.2927,0.7315 Q37.231,0.8994 39.95,7.3487 L49.5314,30.0491 Q52.2529,36.4984 45.25,36.3128 L6.1195,35.2749 Q-0.8781,35.0893 1.98,28.7038 L11.8359,6.7809 Q14.7038,0.3954 19.57,-0.1903 " fill="none" stroke="#1d1d1d" stroke-width="3.5"/></g></g><g clip-path="url(#ELJ6RBsncys6mfT3mnBaD)"><g transform="matrix(0, -1, 1, 0, 1575.17, 417.96)" opacity="1"><path d="M3.3981,-0.0866 L10.1942,-0.2599 Q13.5923,-0.3465 13.45,2.9847 L13.1761,9.6471 Q13.0374,12.9782 9.65,12.7092 L2.8835,12.1712 Q-0.5011,11.9021 -0.2351,8.8002 L0.2971,2.5962 Q0.5632,-0.5057 3.75,-0.5027 L10.1474,-0.4967 Q13.3421,-0.4937 13.10,2.8686 L12.6354,9.5932 Q12.3999,12.9556 9.30,12.9527 L3.1291,12.947 Q0.0389,12.9441 -0.0267,9.8456 L-0.1579,3.6486 Q-0.2236,0.5501 3.39,-0.0866 " fill="none" stroke="#1d1d1d" stroke-width="3.5"/></g></g><g clip-path="url(#i_fBYMjFEHj9A1Nj0kcXD)"><g transform="matrix(0, 1, -1, 0, 1521.33, 386.39)" opacity="1"><path d="M19.6019,-0.2387 L31.4458,-0.7161 Q37.3677,-0.9548 39.94,5.5542 L49.1323,28.7796 Q51.7077,35.2886 44.71,35.5164 L7.0858,36.7415 Q0.0895,36.9693 2.44,30.379 L10.9993,6.5006 Q13.359,-0.0897 19.85,-0.1487 L32.8554,-0.2668 Q39.3542,-0.3258 41.75,6.2482 L50.1838,29.2822 Q52.5884,35.8562 45.58,35.7555 L7.6518,35.2096 Q0.6525,35.1089 2.90,28.4807 L10.667,5.6195 Q12.9179,-1.0087 19.60,-0.2387 " fill="none" stroke="#1d1d1d" stroke-width="3.5"/></g></g><g clip-path="url(#D6oGSVZoMG8n2JGK2PrzX)"><g transform="matrix(0, 1, -1, 0, 1474.33, 405.89)" opacity="1"><path d="M3.3298,0.1266 L9.9894,0.3799 Q13.3192,0.5066 13.13,3.3004 L12.7555,8.888 Q12.5677,11.6818 9.34,12.0184 L2.8941,12.6915 Q-0.3304,13.028 -0.1535,9.8906 L0.2002,3.6158 Q0.377,0.4784 3.47,0.2236 L9.6713,-0.2859 Q12.7694,-0.5407 12.84,2.5289 L13.0012,8.668 Q13.0785,11.7376 9.58,11.9081 L2.591,12.2492 Q-0.9048,12.4197 -0.8181,9.0644 L-0.6447,2.3539 Q-0.5581,-1.0014 3.32,0.1266 " fill="none" stroke="#1d1d1d" stroke-width="3.5"/></g></g><g clip-path="url(#E0QaKwdkpidkXTsYM8XW4)"><g transform="matrix(0, 1, -1, 0, 1521.33, 329.39)" opacity="1"><path d="M19.8946,-0.0896 L32.3238,-0.2688 Q38.5384,-0.3584 40.91,6.2244 L49.5723,30.1535 Q51.9528,36.7363 44.95,36.7545 L6.8636,36.854 Q-0.1363,36.8722 2.42,30.3577 L11.5508,7.1485 Q14.1123,0.634 20.10,0.5772 L32.1006,0.4636 Q38.0967,0.4068 40.73,6.8904 L50.2938,30.3787 Q52.9323,36.8623 45.93,36.6264 L6.2675,35.2888 Q-0.7286,35.0529 1.81,28.5324 L10.3501,6.682 Q12.8963,0.1615 19.89,-0.0896 " fill="none" stroke="#1d1d1d" stroke-width="3.5"/></g></g><g clip-path="url(#tjyQaqx5f78iI52SrMyNb)"><g transform="matrix(0, 1, -1, 0, 1474.33, 348.89)" opacity="1"><path d="M3.1469,0.0428 L9.4406,0.1283 Q12.5874,0.1711 12.70,3.1832 L12.9426,9.2073 Q13.061,12.2194 9.89,12.2214 L3.5701,12.2254 Q0.4064,12.2274 0.04,9.2037 L-0.668,3.1562 Q-1.0261,0.1325 2.24,0.1512 L8.7854,0.1887 Q12.0559,0.2074 12.16,2.9199 L12.3758,8.345 Q12.4825,11.0575 9.55,11.4493 L3.7022,12.233 Q0.7754,12.6248 0.74,9.6924 L0.6854,3.8278 Q0.6554,0.8954 3.14,0.0428 " fill="none" stroke="#1d1d1d" stroke-width="3.5"/></g></g><g clip-path="url(#DZ9XDwcwsqTDw0nfUhdyW)"><g transform="matrix(0, -1, 1, 0, 1629.26, 243.21)" opacity="1"><path d="M19.7372,0.058 L31.8515,0.1741 Q37.9086,0.2321 40.61,6.6865 L50.1313,29.349 Q52.8407,35.8034 45.84,35.968 L6.5885,36.8914 Q-0.4096,37.056 2.04,30.5003 L10.7387,7.2749 Q13.1928,0.7191 19.53,0.3668 L32.2276,-0.338 Q38.5726,-0.6904 40.98,5.8807 L49.9334,30.2516 Q52.346,36.8226 45.34,36.801 L6.9066,36.6823 Q-0.0934,36.6606 2.26,30.0689 L11.0186,5.5666 Q13.3743,-1.0251 19.73,0.058 " fill="none" stroke="#1d1d1d" stroke-width="3.5"/></g></g><g clip-path="url(#QHuK4S1fGhsPzQsmfH1x0)"><g transform="matrix(0, -1, 1, 0, 1676.26, 223.71)" opacity="1"><path d="M3.1448,0.217 L9.4344,0.6509 Q12.5792,0.8679 12.65,3.7332 L12.7982,9.464 Q12.8712,12.3293 9.89,11.9745 L3.9435,11.2647 Q0.9675,10.9098 0.44,8.0166 L-0.613,2.23 Q-1.1399,-0.6633 2.34,-0.3346 L9.3246,0.3226 Q12.8128,0.6512 13.03,3.5659 L13.4776,9.3951 Q13.6993,12.3098 10.52,12.0542 L4.1667,11.5431 Q0.9892,11.2876 0.88,8.19 L0.6877,1.995 Q0.5873,-1.1025 3.14,0.217 " fill="none" stroke="#1d1d1d" stroke-width="3.5"/></g></g><g clip-path="url(#NDXc90s3JcEvOSN-JtSBw)"><g transform="matrix(0, -1, 1, 0, 1629.26, 300.21)" opacity="1"><path d="M19.9441,0.026 L32.4724,0.0781 Q38.7365,0.1041 41.16,6.6707 L49.7061,29.8094 Q52.131,36.376 45.13,36.2592 L6.0018,35.6063 Q-0.9972,35.4895 1.77,29.0618 L11.4139,6.7125 Q14.1861,0.2849 20.34,0.2822 L32.6558,0.2767 Q38.8124,0.274 41.27,6.8255 L49.8068,29.4907 Q52.2721,36.0422 45.27,35.9176 L7.0499,35.2374 Q0.051,35.1128 2.75,28.6577 L11.7575,7.2025 Q14.465,0.7473 19.94,0.026 " fill="none" stroke="#1d1d1d" stroke-width="3.5"/></g></g><g clip-path="url(#GC9bs2PZQh0lgrPKnE9aM)"><g transform="matrix(0, -1, 1, 0, 1676.26, 280.71)" opacity="1"><path d="M2.9593,-0.1487 L8.8779,-0.4461 Q11.8371,-0.5948 12.29,2.552 L13.212,8.8458 Q13.6703,11.9927 10.34,12.2858 L3.6846,12.8721 Q0.356,13.1652 0.49,9.9153 L0.7677,3.4155 Q0.905,0.1655 4.13,-0.1061 L10.5956,-0.6493 Q13.8258,-0.9209 13.44,2.2676 L12.6889,8.6445 Q12.31,11.833 9.46,12.0568 L3.7599,12.5044 Q0.9099,12.7282 0.48,9.648 L-0.3761,3.4876 Q-0.8048,0.4075 2.95,-0.1487 " fill="none" stroke="#1d1d1d" stroke-width="3.5"/></g></g><g clip-path="url(#Ji9eLAeAWScrxq95gmk9c)"><g transform="matrix(0, 1, -1, 0, 1622.41, 249.14)" opacity="1"><path d="M19.5537,-0.185 L31.3011,-0.5551 Q37.1749,-0.7401 39.77,5.7585 L49.5993,30.2951 Q52.2009,36.7937 45.20,36.6829 L7.4973,36.0862 Q0.4981,35.9755 2.81,29.3699 L10.5363,7.3529 Q12.853,0.7474 19.43,0.4765 L32.5875,-0.0653 Q39.1656,-0.3362 41.68,6.1963 L50.4391,28.9439 Q52.9542,35.4765 45.95,35.4229 L6.1515,35.1184 Q-0.8483,35.0649 1.97,28.6578 L12.0084,5.849 Q14.8279,-0.5581 19.55,-0.185 " fill="none" stroke="#1d1d1d" stroke-width="3.5"/></g></g><g clip-path="url(#I4wXTImJmNBmjxcJp67Ap)"><g transform="matrix(0, 1, -1, 0, 1575.41, 268.64)" opacity="1"><path d="M3.1047,0.1061 L9.314,0.3182 Q12.4186,0.4242 12.36,3.0317 L12.2456,8.2467 Q12.1879,10.8542 9.12,10.8815 L3.0128,10.936 Q-0.0455,10.9633 0.02,8.0963 L0.1714,2.3623 Q0.2436,-0.5047 3.57,-0.5911 L10.2452,-0.7638 Q13.579,-0.8502 13.65,2.1784 L13.8082,8.2354 Q13.8846,11.264 10.21,11.3202 L2.878,11.4328 Q-0.7908,11.489 -0.7288,8.3766 L-0.6046,2.1517 Q-0.5425,-0.9607 3.10,0.1061 " fill="none" stroke="#1d1d1d" stroke-width="3.5"/></g></g><g clip-path="url(#ma33qKo1QCiBDjQb6EkrV)"><g transform="matrix(0, 1, -1, 0, 1622.41, 192.14)" opacity="1"><path d="M19.7144,0.226 L31.7833,0.678 Q37.8177,0.9039 40.32,7.4408 L48.5012,28.7958 Q51.0051,35.3326 44.00,35.5521 L7.9359,36.6836 Q0.9393,36.903 3.26,30.2993 L11.8175,5.9609 Q14.1391,-0.6429 20.00,-0.3173 L31.7365,0.3339 Q37.6024,0.6596 40.14,7.1814 L48.4086,28.3772 Q50.9513,34.899 43.95,34.9027 L7.3899,34.9217 Q0.3899,34.9253 2.65,28.3011 L10.3209,5.8494 Q12.5834,-0.7749 19.71,0.226 " fill="none" stroke="#1d1d1d" stroke-width="3.5"/></g></g><g clip-path="url(#Fnyl4WppQomRQzD6zrIc0)"><g transform="matrix(0, 1, -1, 0, 1575.41, 211.64)" opacity="1"><path d="M3.4415,0.2867 L10.3246,0.8602 Q13.7662,1.1469 13.63,4.0665 L13.3842,9.9058 Q13.2569,12.8254 10.20,12.4139 L4.1151,11.5909 Q1.0679,11.1794 0.93,8.4327 L0.6798,2.9393 Q0.5504,0.1926 3.75,0.2709 L10.1767,0.4276 Q13.3855,0.5059 13.35,3.393 L13.2901,9.1673 Q13.2583,12.0544 10.21,12.2209 L4.1234,12.5539 Q1.0784,12.7205 0.74,9.6218 L0.0686,3.4244 Q-0.2679,0.3257 3.44,0.2867 " fill="none" stroke="#1d1d1d" stroke-width="3.5"/></g></g><g clip-path="url(#t4uXlk0_UX2DOfyNnr8rL)"><g transform="matrix(0, -1, 1, 0, 1749.82, 376.75)" opacity="1"><path d="M19.88,0.0055 L32.28,0.0166 Q38.48,0.0221 41.02,6.5426 L50.0075,29.5422 Q52.5537,36.0626 45.55,36.0701 L8.1523,36.1101 Q1.1523,36.1176 3.49,29.5229 L11.8276,6.1294 Q14.1752,-0.4652 20.10,-0.3804 L31.9786,-0.2107 Q37.913,-0.1258 40.59,6.3409 L50.2089,29.545 Q52.8887,36.0117 45.89,36.1582 L7.2274,36.9674 Q0.2289,37.1139 2.69,30.5609 L11.3908,7.3974 Q13.8522,0.8444 19.88,0.0055 " fill="none" stroke="#1d1d1d" stroke-width="3.5"/></g></g><g clip-path="url(#_NdCHZAAFM6X8NJ6dIe3g)"><g transform="matrix(0, -1, 1, 0, 1796.82, 357.25)" opacity="1"><path d="M3.1871,-0.2568 L9.5612,-0.7704 Q12.7483,-1.0272 12.56,2.3104 L12.2023,8.9856 Q12.0204,12.3232 8.91,12.3691 L2.7007,12.4609 Q-0.4058,12.5069 -0.5691,9.3864 L-0.8957,3.1454 Q-1.059,0.0249 2.45,-0.0343 L9.4859,-0.1526 Q13.0008,-0.2118 12.92,2.951 L12.7815,9.2766 Q12.7084,12.4394 9.25,12.5111 L2.3393,12.6546 Q-1.1171,12.7263 -1.0035,9.6392 L-0.7762,3.4649 Q-0.6625,0.3778 3.18,-0.2568 " fill="none" stroke="#1d1d1d" stroke-width="3.5"/></g></g><g clip-path="url(#oRG9wrzjz4YOAXI_5PkQZ)"><g transform="matrix(0, -1, 1, 0, 1749.82, 433.75)" opacity="1"><path d="M19.7589,-0.1291 L31.9168,-0.3872 Q37.9957,-0.5163 40.52,6.0097 L49.8044,29.9167 Q52.3366,36.4426 45.33,36.2557 L5.9301,35.2027 Q-1.0674,35.0157 1.63,28.5586 L10.4399,7.5269 Q13.1429,1.0698 19.36,1.0782 L31.8128,1.0948 Q38.0361,1.1031 40.63,7.6013 L49.7201,30.2751 Q52.3228,36.7732 45.32,36.7292 L8.1628,36.4952 Q1.1629,36.4511 3.52,29.86 L12.1491,5.7345 Q14.5065,-0.8566 19.75,-0.1291 " fill="none" stroke="#1d1d1d" stroke-width="3.5"/></g></g><g clip-path="url(#2QkTpDkYbpCIVa87mnDJO)"><g transform="matrix(0, -1, 1, 0, 1796.82, 414.25)" opacity="1"><path d="M3.0916,-0.2103 L9.2747,-0.6309 Q12.3663,-0.8412 12.76,2.5114 L13.5554,9.2167 Q13.9517,12.5694 10.61,12.5738 L3.9321,12.5825 Q0.5923,12.5868 0.70,9.1704 L0.9395,2.3375 Q1.0552,-1.079 4.08,-0.6504 L10.1349,0.2066 Q13.1614,0.6351 13.15,3.7035 L13.1549,9.8403 Q13.1528,12.9087 9.78,12.6129 L3.0606,12.0212 Q-0.3034,11.7254 -0.2934,8.8225 L-0.2733,3.0166 Q-0.2633,0.1136 3.09,-0.2103 " fill="none" stroke="#1d1d1d" stroke-width="3.5"/></g></g><g clip-path="url(#wx4gmF6Sk5gJuCB7g4Z3K)"><g transform="matrix(0, 1, -1, 0, 1742.97, 382.68)" opacity="1"><path d="M19.7565,0.226 L31.9095,0.678 Q37.9861,0.9041 40.59,7.4014 L49.3452,29.2384 Q51.9499,35.7357 44.95,35.845 L6.6833,36.4427 Q-0.3159,36.552 2.13,29.9943 L10.7386,6.9498 Q13.1874,0.3922 19.58,0.5679 L32.387,0.9193 Q38.7869,1.095 41.29,7.6306 L49.7041,29.5553 Q52.2111,36.091 45.21,35.951 L6.9882,35.1863 Q-0.0104,35.0463 2.47,28.5012 L10.7093,6.7819 Q13.1917,0.2368 19.75,0.226 " fill="none" stroke="#1d1d1d" stroke-width="3.5"/></g></g><g clip-path="url(#uazSOvjzSDAek2Zfd943H)"><g transform="matrix(0, 1, -1, 0, 1695.97, 402.18)" opacity="1"><path d="M3.3761,-0.1378 L10.1284,-0.4134 Q13.5045,-0.5512 13.34,2.7988 L13.0346,9.4988 Q12.8779,12.8488 9.44,12.8198 L2.5866,12.7618 Q-0.8439,12.7327 -0.348,9.4756 L0.6438,2.9612 Q1.1397,-0.296 4.20,-0.0169 L10.3459,0.5412 Q13.4146,0.8203 13.60,3.351 L13.9776,8.4124 Q14.1653,10.9431 10.90,11.1342 L4.3941,11.5162 Q1.137,11.7073 1.11,8.5572 L1.0643,2.2569 Q1.0401,-0.8932 3.37,-0.1378 " fill="none" stroke="#1d1d1d" stroke-width="3.5"/></g></g><g clip-path="url(#ef8DS-27BXmhGRCdtPwNW)"><g transform="matrix(0, 1, -1, 0, 1742.97, 325.68)" opacity="1"><path d="M20.0423,0.1483 L32.767,0.4449 Q39.1293,0.5932 41.57,7.1522 L49.8972,29.474 Q52.3427,36.0329 45.34,35.9914 L7.1109,35.7644 Q0.111,35.7229 2.59,29.1779 L11.2374,6.3902 Q13.72,-0.1548 19.59,-0.3133 L31.3572,-0.6302 Q37.2362,-0.7887 39.67,5.7735 L48.8731,30.5493 Q51.3098,37.1115 44.30,37.0714 L7.706,36.8616 Q0.7061,36.8215 2.99,30.2077 L11.0256,7.0534 Q13.3184,0.4396 20.04,0.1483 " fill="none" stroke="#1d1d1d" stroke-width="3.5"/></g></g><g clip-path="url(#E_ZRFRzMfaQxQKdnxq1On)"><g transform="matrix(0, 1, -1, 0, 1695.97, 345.18)" opacity="1"><path d="M3.0979,0.2184 L9.2936,0.6551 Q12.3915,0.8735 12.44,3.6208 L12.5514,9.1154 Q12.6047,11.8627 9.26,12.0439 L2.5879,12.4063 Q-0.7511,12.5875 -0.7888,9.3947 L-0.8641,3.009 Q-0.9017,-0.1838 2.29,0.1271 L8.692,0.7489 Q11.8899,1.0598 12.38,3.896 L13.3837,9.5683 Q13.8816,12.4045 10.44,12.4583 L3.5569,12.5658 Q0.1154,12.6196 0.02,9.591 L-0.153,3.5337 Q-0.2425,0.5051 3.09,0.2184 " fill="none" stroke="#1d1d1d" stroke-width="3.5"/></g></g></svg>